<svg width="1018" height="1018" viewBox="0 0 1018 1018" fill="none" xmlns="http://www.w3.org/2000/svg">
<path d="M520.687 818.106C548.137 821.209 575.881 820.586 603.165 816.253C628.021 812.071 652.17 804.437 674.914 793.572C792.33 739.597 880.081 608.296 868.7 476.363C862.022 403.352 818.9 343.514 742.672 312.669C688.168 290.415 593.494 325.638 541.719 293.367C487.683 259.651 488.09 194.316 375.561 166.952C303.975 149.198 226.709 212.314 195.965 272.091C159.317 346.548 163.817 428.863 185.032 518.976C217.852 661.334 371.224 801.716 520.687 818.106Z" fill="#5245ED"/>
<g opacity="0.8">
<path d="M520.687 818.106C548.137 821.209 575.881 820.586 603.165 816.253C628.021 812.071 652.17 804.437 674.914 793.572C792.33 739.597 880.081 608.296 868.7 476.363C862.022 403.352 818.9 343.514 742.672 312.669C688.168 290.415 593.494 325.638 541.719 293.367C487.683 259.651 488.09 194.316 375.561 166.952C303.975 149.198 226.709 212.314 195.965 272.091C159.317 346.548 163.817 428.863 185.032 518.976C217.852 661.334 371.224 801.716 520.687 818.106Z" fill="white"/>
</g>
<mask id="mask0_27_143" style="mask-type:luminance" maskUnits="userSpaceOnUse" x="176" y="198" width="643" height="463">
<path d="M371.814 660.539H176.358V198.205H371.814V660.539ZM595.123 198.205H399.667V660.539H595.123V198.205ZM818.452 198.205H623.016V660.539H818.472L818.452 198.205Z" fill="white"/>
</mask>
<g mask="url(#mask0_27_143)">
<path d="M604.977 286.282V289.254H606.728C606.158 288.277 605.608 287.28 604.977 286.282Z" fill="white"/>
<g opacity="0.2">
<path d="M432.772 288.99C425.789 285.182 422.592 288.359 420.088 285.183C417.584 282.006 427.051 273.761 408.035 265.535C408.035 265.535 406.772 247.781 380.773 247.211C354.773 246.641 361.756 264.945 354.793 269.383C347.83 273.822 345.916 266.858 338.933 271.297C331.949 275.735 335.126 284.612 329.425 285.875C323.724 287.137 316.109 280.174 309.065 284.612C302.02 289.051 302.081 292.858 298.885 292.858C295.688 292.858 289.377 290.313 285.569 292.858C281.762 295.403 277.425 298.559 277.425 298.559H437.821C437.821 298.559 439.776 292.797 432.772 288.99Z" fill="#5245ED"/>
</g>
<g opacity="0.2">
<path d="M884.825 361.634C877.842 357.827 874.645 361.003 872.141 357.827C869.637 354.651 879.104 346.425 860.088 338.18C860.088 338.18 858.825 320.426 832.826 319.856C806.826 319.285 813.81 337.609 806.846 342.048C799.883 346.486 797.969 339.503 790.986 343.941C784.003 348.38 787.179 357.257 781.478 358.519C775.777 359.781 768.162 352.818 761.118 357.257C754.073 361.695 754.134 365.503 750.938 365.503C747.741 365.503 741.43 362.958 737.622 365.503C733.815 368.048 729.478 371.203 729.478 371.203H889.875C889.875 371.203 891.768 365.442 884.825 361.634Z" fill="#5245ED"/>
</g>
<g opacity="0.2">
<path d="M468.036 360.372C463.679 357.99 461.704 359.965 460.116 357.99C458.528 356.015 464.473 350.864 452.603 345.774C452.603 345.774 451.809 334.678 435.582 334.291C419.355 333.904 423.712 345.367 419.294 348.136C414.876 350.905 413.756 346.548 409.399 349.337C405.042 352.126 407.017 357.644 403.474 358.438C399.931 359.232 395.147 354.875 390.81 357.644C386.474 360.413 386.453 362.774 384.478 362.774C382.503 362.774 378.533 361.207 376.151 362.774C373.769 364.342 371.02 366.337 371.02 366.337H471.13C471.13 366.337 472.352 362.734 468.036 360.372Z" fill="#5245ED"/>
</g>
<path opacity="0.1" d="M75.047 676.99V507.453H175.727V304.117H243.526V348.746H281.497V480.17H373.687V408.259H417.075V447.92H448.999H463.312L464.452 462.824H501.915V403.311H531.742V217.343H604.957V289.234H659.196V198.673H718.851V420.658H781.234V502.485H824.784V680.635" fill="black"/>
<path opacity="0.1" d="M202.378 348.156H187.719V364.037H202.378V348.156Z" fill="black"/>
<path opacity="0.1" d="M232.939 348.156H218.28V364.037H232.939V348.156Z" fill="black"/>
<path opacity="0.1" d="M202.378 381.261H187.719V397.142H202.378V381.261Z" fill="black"/>
<path opacity="0.1" d="M232.939 381.261H218.28V397.142H232.939V381.261Z" fill="black"/>
<path opacity="0.1" d="M265.922 381.261H251.263V397.142H265.922V381.261Z" fill="black"/>
<path opacity="0.1" d="M265.922 414.367H251.263V430.248H265.922V414.367Z" fill="black"/>
<path opacity="0.1" d="M265.922 447.472H251.263V463.353H265.922V447.472Z" fill="black"/>
<path opacity="0.1" d="M265.922 480.577H251.263V496.458H265.922V480.577Z" fill="black"/>
<path opacity="0.1" d="M265.922 513.683H251.263V529.564H265.922V513.683Z" fill="black"/>
<path opacity="0.1" d="M265.922 546.788H251.263V562.669H265.922V546.788Z" fill="black"/>
<path opacity="0.1" d="M202.378 414.367H187.719V430.248H202.378V414.367Z" fill="black"/>
<path opacity="0.1" d="M232.939 414.367H218.28V430.248H232.939V414.367Z" fill="black"/>
<path opacity="0.1" d="M202.378 447.472H187.719V463.353H202.378V447.472Z" fill="black"/>
<path opacity="0.1" d="M232.939 447.472H218.28V463.353H232.939V447.472Z" fill="black"/>
<path opacity="0.1" d="M202.378 480.577H187.719V496.458H202.378V480.577Z" fill="black"/>
<path opacity="0.1" d="M232.939 480.577H218.28V496.458H232.939V480.577Z" fill="black"/>
<path opacity="0.1" d="M202.378 513.683H187.719V529.564H202.378V513.683Z" fill="black"/>
<path opacity="0.1" d="M346.568 496.458H331.909V512.339H346.568V496.458Z" fill="black"/>
<path opacity="0.1" d="M375.907 496.458H361.247V512.339H375.907V496.458Z" fill="black"/>
<path opacity="0.1" d="M683.607 239.576H668.948V255.457H683.607V239.576Z" fill="black"/>
<path opacity="0.1" d="M701.952 239.576H687.293V255.457H701.952V239.576Z" fill="black"/>
<path opacity="0.1" d="M683.607 272.681H668.948V288.562H683.607V272.681Z" fill="black"/>
<path opacity="0.1" d="M701.952 272.681H687.293V288.562H701.952V272.681Z" fill="black"/>
<path opacity="0.1" d="M683.607 305.787H668.948V321.668H683.607V305.787Z" fill="black"/>
<path opacity="0.1" d="M701.952 305.787H687.293V321.668H701.952V305.787Z" fill="black"/>
<path opacity="0.1" d="M683.607 338.892H668.948V354.773H683.607V338.892Z" fill="black"/>
<path opacity="0.1" d="M701.952 338.892H687.293V354.773H701.952V338.892Z" fill="black"/>
<path opacity="0.1" d="M683.607 371.998H668.948V387.878H683.607V371.998Z" fill="black"/>
<path opacity="0.1" d="M701.952 371.998H687.293V387.878H701.952V371.998Z" fill="black"/>
<path opacity="0.1" d="M558.984 371.998H544.325V387.878H558.984V371.998Z" fill="black"/>
<path opacity="0.1" d="M590.745 371.998H576.086V387.878H590.745V371.998Z" fill="black"/>
<path opacity="0.1" d="M622.527 371.998H607.868V387.878H622.527V371.998Z" fill="black"/>
<path opacity="0.1" d="M558.984 443.502H544.325V459.383H558.984V443.502Z" fill="black"/>
<path opacity="0.1" d="M590.745 443.502H576.086V459.383H590.745V443.502Z" fill="black"/>
<path opacity="0.1" d="M622.527 443.502H607.868V459.383H622.527V443.502Z" fill="black"/>
<path opacity="0.1" d="M558.984 515.006H544.325V530.887H558.984V515.006Z" fill="black"/>
<path opacity="0.1" d="M590.745 515.006H576.086V530.887H590.745V515.006Z" fill="black"/>
<path opacity="0.1" d="M622.527 515.006H607.868V530.887H622.527V515.006Z" fill="black"/>
<path opacity="0.1" d="M683.607 405.103H668.948V420.984H683.607V405.103Z" fill="black"/>
<path opacity="0.1" d="M701.952 405.103H687.293V420.984H701.952V405.103Z" fill="black"/>
<path opacity="0.1" d="M683.607 438.208H668.948V454.089H683.607V438.208Z" fill="black"/>
<path opacity="0.1" d="M701.952 438.208H687.293V454.089H701.952V438.208Z" fill="black"/>
<path opacity="0.1" d="M683.607 471.314H668.948V487.194H683.607V471.314Z" fill="black"/>
<path opacity="0.1" d="M701.952 471.314H687.293V487.194H701.952V471.314Z" fill="black"/>
<path opacity="0.1" d="M732.492 438.208H717.833V454.089H732.492V438.208Z" fill="black"/>
<path opacity="0.1" d="M766.717 438.208H752.058V454.089H766.717V438.208Z" fill="black"/>
<path opacity="0.1" d="M732.492 469.99H717.833V485.871H732.492V469.99Z" fill="black"/>
<path opacity="0.1" d="M766.717 469.99H752.058V485.871H766.717V469.99Z" fill="black"/>
<path opacity="0.1" d="M732.492 501.752H717.833V517.633H732.492V501.752Z" fill="black"/>
<path opacity="0.1" d="M766.717 501.752H752.058V517.633H766.717V501.752Z" fill="black"/>
<path opacity="0.1" d="M732.492 533.534H717.833V549.415H732.492V533.534Z" fill="black"/>
<path opacity="0.1" d="M766.717 533.534H752.058V549.415H766.717V533.534Z" fill="black"/>
<path opacity="0.1" d="M683.607 504.399H668.948V520.279H683.607V504.399Z" fill="black"/>
<path opacity="0.1" d="M701.952 504.399H687.293V520.279H701.952V504.399Z" fill="black"/>
<path opacity="0.1" d="M683.607 537.504H668.948V553.385H683.607V537.504Z" fill="black"/>
<path opacity="0.1" d="M701.952 537.504H687.293V553.385H701.952V537.504Z" fill="black"/>
<path opacity="0.1" d="M232.939 513.683H218.28V529.564H232.939V513.683Z" fill="black"/>
<path opacity="0.1" d="M202.378 546.788H187.719V562.669H202.378V546.788Z" fill="black"/>
<path opacity="0.1" d="M232.939 546.788H218.28V562.669H232.939V546.788Z" fill="black"/>
<path opacity="0.1" d="M202.378 579.894H187.719V595.774H202.378V579.894Z" fill="black"/>
<path opacity="0.1" d="M232.939 579.894H218.28V595.774H232.939V579.894Z" fill="black"/>
<path opacity="0.1" d="M202.378 612.979H187.719V628.859H202.378V612.979Z" fill="black"/>
<path opacity="0.1" d="M232.939 612.979H218.28V628.859H232.939V612.979Z" fill="black"/>
</g>
<path d="M371.814 660.539H176.358V198.205H371.814V660.539ZM595.123 198.205H399.667V660.539H595.123V198.205ZM818.452 198.205H623.016V660.539H818.472L818.452 198.205Z" stroke="#263238" stroke-miterlimit="10"/>
<path d="M736.279 526.795C736.279 526.795 715.003 595.286 710.401 597.586C705.8 599.887 614.872 577.43 614.872 577.43C614.872 577.43 607.4 583.762 602.799 585.574C599.678 586.855 596.767 588.598 594.166 590.745C594.166 590.745 583.192 603.674 583.762 600.213C584.332 596.752 588.974 591.906 588.974 591.906C588.974 591.906 579.14 602.473 578 601.333C576.86 600.192 585.533 590.745 585.533 590.745C585.533 590.745 572.564 602.819 571.729 600.539C571.118 598.889 579.547 589.32 579.547 589.32C579.547 589.32 565.397 603.409 565.397 600.539C565.397 597.668 571.729 590.745 575.74 587.875C579.751 585.004 600.498 572.34 605.099 572.34C609.701 572.34 691.405 574.641 691.405 574.641L713.272 498.677" fill="white"/>
<path d="M736.279 526.795C736.279 526.795 715.003 595.286 710.401 597.586C705.8 599.887 614.872 577.43 614.872 577.43C614.872 577.43 607.4 583.762 602.799 585.574C599.678 586.855 596.767 588.598 594.166 590.745C594.166 590.745 583.192 603.674 583.762 600.213C584.332 596.752 588.974 591.906 588.974 591.906C588.974 591.906 579.14 602.473 578 601.333C576.86 600.192 585.533 590.745 585.533 590.745C585.533 590.745 572.564 602.819 571.729 600.539C571.118 598.889 579.547 589.32 579.547 589.32C579.547 589.32 565.397 603.409 565.397 600.539C565.397 597.668 571.729 590.745 575.74 587.875C579.751 585.004 600.498 572.34 605.099 572.34C609.701 572.34 691.405 574.641 691.405 574.641L713.272 498.677" stroke="#263238" stroke-linecap="round" stroke-linejoin="round"/>
<path d="M604.814 581.013C604.065 583.525 602.362 585.645 600.07 586.918C595.998 589.565 590.033 587.793 587.081 589.87C584.128 591.947 580.586 593.942 579.405 593.698C578.224 593.453 580.891 588.974 582.662 587.793C584.434 586.612 594.166 578.346 594.166 578.346" fill="white"/>
<path d="M604.814 581.013C604.065 583.525 602.362 585.645 600.07 586.918C595.998 589.565 590.033 587.793 587.081 589.87C584.128 591.947 580.586 593.942 579.405 593.698C578.224 593.453 580.891 588.974 582.662 587.793C584.434 586.612 594.166 578.346 594.166 578.346" stroke="#263238" stroke-linecap="round" stroke-linejoin="round"/>
<path d="M614.383 799.028C614.383 799.028 604.651 802.306 599.867 804.281C595.082 806.256 580.036 805.36 578.428 807.742C576.819 810.124 583.334 811.631 592.476 816.07C601.618 820.508 609.354 817.617 611.207 818.309C613.06 819.001 617.844 822.198 624.767 818.777C631.689 815.357 627.393 802.041 627.393 802.041L614.383 799.028Z" fill="#263238" stroke="#263238" stroke-linecap="round" stroke-linejoin="round"/>
<path d="M720.479 625.622C720.479 625.622 645.595 634.519 640.505 638.612C635.415 642.704 614.037 799.456 614.037 799.456L627.047 802.449L665.406 681.795C665.406 681.795 710.401 670.109 733.897 672.023C757.392 673.936 764.579 668.663 769.364 655.246C774.148 641.829 767.938 631.75 760.751 629.837" fill="#263238"/>
<path d="M720.479 625.622C720.479 625.622 645.595 634.519 640.505 638.612C635.415 642.704 614.037 799.456 614.037 799.456L627.047 802.449L665.406 681.795C665.406 681.795 710.401 670.109 733.897 672.023C757.392 673.936 764.579 668.663 769.364 655.246C774.148 641.829 767.938 631.75 760.751 629.837" stroke="#263238" stroke-linecap="round" stroke-linejoin="round"/>
<path d="M715.389 614.729C715.389 614.729 714.371 651.377 714.371 659.012C714.371 666.647 723.594 674.384 739.72 674.384C755.845 674.384 777.386 672.837 784.288 665.935C791.19 659.033 785.835 612.144 785.835 612.144L715.389 614.729Z" fill="#263238" stroke="#263238" stroke-linecap="round" stroke-linejoin="round"/>
<path d="M700.954 491.429C700.954 491.429 695.701 513.072 698.328 528.077C700.954 543.083 710.136 572.014 709.485 579.242C708.833 586.47 711.521 612.022 715.389 614.648C719.258 617.275 782.923 614.648 782.923 614.648C782.923 614.648 788.828 612.612 787.525 602.839C786.222 593.066 778.994 552.346 773.09 519.546C767.185 486.747 729.153 465.776 729.153 465.776L700.954 491.429Z" fill="#5245ED" stroke="#263238" stroke-linecap="round" stroke-linejoin="round"/>
<path d="M677.988 377.983C677.988 377.983 668.154 377.983 663.553 385.863C658.951 393.742 668.154 398.975 668.154 398.975C668.154 398.975 662.901 416.016 662.901 419.335C663.31 422.51 664.196 425.605 665.528 428.517L661.7 443.563L668.256 446.189C668.256 446.189 670.862 461.928 675.463 463.231C680.065 464.534 689.899 459.953 689.899 459.953L702.359 481.595L729.234 465.857L720.703 444.866C720.703 444.866 734.487 416.016 731.861 398.303C729.234 380.589 697.025 372.079 677.988 377.983Z" fill="white" stroke="#263238" stroke-linecap="round" stroke-linejoin="round"/>
<path d="M731.779 398.303C729.153 380.61 697.025 372.079 678.008 377.943C678.008 377.943 668.174 377.943 663.573 385.822C658.972 393.701 668.174 398.934 668.174 398.934C668.174 398.934 689.817 393.029 689.817 398.262C689.817 403.494 685.216 406.793 686.539 411.394C687.863 415.996 695.701 415.975 695.701 415.975L695.05 425.809L700.954 429.759C700.954 429.759 700.954 419.905 704.884 420.577C708.813 421.248 711.46 422.613 711.46 429.759C711.46 436.905 705.555 437.618 705.555 437.618C705.555 437.618 714.066 450.078 720.622 444.825C720.622 444.866 734.406 416.016 731.779 398.303Z" fill="#263238" stroke="#263238" stroke-linecap="round" stroke-linejoin="round"/>
<path d="M729.804 456.675L694.398 488.151L697.025 501.284L737.032 467.832L729.804 456.675Z" fill="white" stroke="#263238" stroke-linecap="round" stroke-linejoin="round"/>
<path d="M589.402 587.793C596.506 582.845 603.995 578.474 611.798 574.722C621.632 570.793 704.252 568.777 704.252 568.777L707.754 553.873L733.795 565.641C729.865 578.774 726.119 589.829 724.388 590.806C719.909 593.331 628.839 582.662 628.839 582.662C628.839 582.662 622.202 585.94 617.682 587.895C614.581 589.12 611.283 589.768 607.95 589.809C607.95 589.809 597.647 603.246 598.055 599.765C598.462 596.283 602.839 591.214 602.839 591.214C602.839 591.214 593.535 602.269 592.334 601.17C591.132 600.07 599.317 590.236 599.317 590.236C599.317 590.236 586.979 602.941 586.022 600.701C585.33 599.073 593.29 589.117 593.29 589.117C593.29 589.117 579.853 603.898 579.71 601.027C579.568 598.156 585.513 590.868 589.402 587.793Z" fill="white" stroke="#263238" stroke-linecap="round" stroke-linejoin="round"/>
<path d="M723.92 494.056C723.92 494.056 715.389 497.334 714.738 504.562C714.086 511.789 704.232 568.777 704.232 568.777L733.754 589.809L753.422 515.108" fill="#5245ED"/>
<path d="M723.92 494.056C723.92 494.056 715.389 497.334 714.738 504.562C714.086 511.789 704.232 568.777 704.232 568.777L733.754 589.809L753.422 515.108" stroke="#263238" stroke-linecap="round" stroke-linejoin="round"/>
<path d="M700.954 568.818C700.954 568.818 726.526 593.738 729.804 593.738C733.082 593.738 731.84 593.087 733.754 589.809C735.668 586.531 737.684 574.722 737.684 574.722L706.207 558.434C703.562 561.365 701.748 564.95 700.954 568.818Z" fill="white" stroke="#263238" stroke-linecap="round" stroke-linejoin="round"/>
<path d="M751.284 626.742C725.045 621.765 698.316 619.852 671.636 621.041C632.117 622.812 620.736 630.773 622.202 637.696C623.668 644.618 656.814 779.055 656.814 779.055L670.638 777.528L662.962 655.368C662.962 655.368 710.605 671.31 739.781 674.384C768.956 677.459 776.429 674.669 784.349 665.935" fill="#263238"/>
<path d="M751.284 626.742C725.045 621.765 698.316 619.852 671.636 621.041C632.117 622.812 620.736 630.773 622.202 637.696C623.668 644.618 656.814 779.055 656.814 779.055L670.638 777.528L662.962 655.368C662.962 655.368 710.605 671.31 739.781 674.384C768.956 677.459 776.429 674.669 784.349 665.935" stroke="#263238" stroke-linecap="round" stroke-linejoin="round"/>
<path d="M656.753 779.055C656.753 779.055 650.645 784.512 647.529 787.871C644.414 791.23 624.665 802.652 622.996 804.668C621.326 806.684 626.681 809.391 631.14 809.391C635.598 809.391 662.738 802.327 669.457 801.247C676.176 800.168 676.868 797.888 677.194 794.854C677.52 791.821 670.658 777.467 670.658 777.467L656.753 779.055Z" fill="#263238" stroke="#263238" stroke-linecap="round" stroke-linejoin="round"/>
<path d="M732.512 737.378H754.033V677.459H732.512V737.378Z" fill="#263238"/>
<path d="M737.908 781.946H748.658V722.027H737.908V781.946Z" fill="#263238"/>
<path d="M745.298 680.492C759.408 680.492 771.115 680.39 774.291 680.126C784.288 679.291 788.746 675.932 789.235 675.545C795.893 669.64 796.137 656.671 796.748 625.378C796.911 616.908 797.094 607.298 797.44 596.12C798.947 546.585 817.026 497.049 817.21 496.56C817.385 496.13 817.473 495.668 817.466 495.203C817.459 494.738 817.359 494.279 817.171 493.854C816.984 493.428 816.712 493.045 816.373 492.727C816.033 492.409 815.634 492.163 815.197 492.002C814.76 491.842 814.296 491.772 813.832 491.795C813.367 491.818 812.912 491.935 812.494 492.138C812.076 492.341 811.702 492.626 811.397 492.977C811.091 493.327 810.859 493.736 810.715 494.178C810.532 494.667 792.065 545.22 790.538 595.978C790.192 607.196 790.009 616.806 789.846 625.296C789.316 651.764 789.031 666.281 784.878 670.21C781.465 672.132 777.636 673.194 773.721 673.305C764.762 674.038 681.144 673.305 680.309 673.305C679.391 673.305 678.511 673.67 677.862 674.319C677.213 674.968 676.848 675.848 676.848 676.766C676.848 677.684 677.213 678.565 677.862 679.214C678.511 679.863 679.391 680.228 680.309 680.228C682.508 680.167 718.321 680.492 745.298 680.492Z" fill="#263238"/>
<path d="M747.66 777.324C747.66 777.324 756.7 787.504 779.931 791.169C792.147 793.042 804.973 795.404 816.049 801.349C823.196 805.116 837.386 813.382 837.386 822.829C837.28 825.001 836.342 827.049 834.767 828.548C833.192 830.047 831.101 830.884 828.927 830.884C826.752 830.884 824.661 830.047 823.086 828.548C821.512 827.049 820.574 825.001 820.467 822.829C820.465 820.684 821.289 818.621 822.768 817.067C816.959 808.34 807.962 802.236 797.705 800.067C780.032 796.219 767.165 797.786 742.285 781.254L747.66 777.324Z" fill="#263238"/>
<path d="M739.964 777.324C739.964 777.324 730.924 787.504 707.693 791.169C695.477 793.042 682.65 795.404 671.554 801.349C664.428 805.116 650.237 813.382 650.237 822.829C650.227 824.215 650.557 825.582 651.198 826.811C651.839 828.039 652.772 829.092 653.915 829.876C655.057 830.66 656.375 831.151 657.752 831.308C659.129 831.464 660.523 831.28 661.813 830.772C663.102 830.263 664.247 829.447 665.147 828.393C666.047 827.339 666.675 826.081 666.975 824.728C667.276 823.375 667.239 821.969 666.87 820.633C666.5 819.298 665.809 818.073 664.856 817.067C670.664 808.34 679.662 802.236 689.919 800.067C707.591 796.219 720.459 797.786 745.339 781.254L739.964 777.324Z" fill="#263238"/>
<path d="M740.147 831.197H747.171C747.913 831.197 748.515 830.595 748.515 829.853V816.66C748.515 815.918 747.913 815.316 747.171 815.316H740.147C739.405 815.316 738.803 815.918 738.803 816.66V829.853C738.803 830.595 739.405 831.197 740.147 831.197Z" fill="#263238"/>
<path d="M741.369 831.197H745.97V778.77H741.369V831.197Z" fill="#263238"/>
<path d="M338.444 404.37C338.483 407.819 338.3 411.267 337.895 414.692C337.345 416.871 333.538 420.129 334.637 422.836C335.736 425.544 337.895 433.179 337.895 433.179L331.379 434.258C331.379 434.258 323.765 448.388 318.878 450.017C313.992 451.646 292.247 439.776 292.247 439.776L285.183 471.843L268.324 456.064C268.324 456.064 275.389 436.498 275.939 431.632C276.489 426.766 277.018 391.971 281.925 381.648C286.832 371.326 297.134 363.711 315.071 365.89C333.008 368.068 345.509 384.254 338.444 404.37Z" fill="white" stroke="#263238" stroke-linecap="round" stroke-linejoin="round"/>
<path d="M309.085 402.191L295.505 465.776L250.937 438.066C250.937 438.066 274.31 396.206 279.197 383.094C284.083 369.982 294.426 359.72 312.343 361.899C330.26 364.078 340.623 379.286 343.331 387.43C346.039 395.574 341.152 406.467 341.152 406.467L309.085 402.191Z" fill="#263238" stroke="#263238" stroke-linecap="round" stroke-linejoin="round"/>
<path d="M290.273 625.968C290.273 625.968 387.858 622.141 394.76 631.364C401.662 640.587 412.433 769.649 421.798 791.312C426.501 802.184 460.849 791.169 457.774 797.298C454.7 803.426 443.176 811.142 436.254 812.669C429.331 814.196 424.73 818.045 416.281 820.366C407.831 822.687 404.757 813.443 405.53 808.15C405.838 803.271 405.592 798.374 404.798 793.551C404.798 793.551 400.461 767.918 396.307 755.906C370.572 681.368 375.561 659.094 375.561 659.094C375.561 659.094 328.733 675.993 290.273 674.466" fill="white"/>
<path d="M290.273 625.968C290.273 625.968 387.858 622.141 394.76 631.364C401.662 640.587 412.433 769.649 421.798 791.312C426.501 802.184 460.849 791.169 457.774 797.298C454.7 803.426 443.176 811.142 436.254 812.669C429.331 814.196 424.73 818.045 416.281 820.366C407.831 822.687 404.757 813.443 405.53 808.15C405.838 803.271 405.592 798.374 404.798 793.551C404.798 793.551 400.461 767.918 396.307 755.906C370.572 681.368 375.561 659.094 375.561 659.094C375.561 659.094 328.733 675.993 290.273 674.466" stroke="#263238" stroke-linecap="round" stroke-linejoin="round"/>
<path d="M457.774 797.298C459.566 793.714 448.551 795.995 438.168 796.32L440.102 802.693C440.102 802.693 429.331 806.134 420.495 808.455C415.546 809.514 410.459 809.769 405.429 809.208C405.205 814.644 408.401 822.503 416.281 820.366C424.73 818.044 429.331 814.258 436.254 812.669C443.176 811.081 454.7 803.446 457.774 797.298Z" fill="#263238" stroke="#263238" stroke-linecap="round" stroke-linejoin="round"/>
<path d="M248.636 526.795C248.636 526.795 269.933 595.286 274.534 597.586C279.136 599.887 370.043 577.43 370.043 577.43C370.043 577.43 377.535 583.762 382.137 585.574C385.258 586.855 388.168 588.598 390.769 590.745C390.769 590.745 401.723 603.674 401.153 600.213C400.583 596.752 395.941 591.906 395.941 591.906C395.941 591.906 405.775 602.473 406.935 601.333C408.096 600.192 399.402 590.745 399.402 590.745C399.402 590.745 412.371 602.819 413.206 600.539C413.817 598.889 405.368 589.32 405.368 589.32C405.368 589.32 419.62 603.409 419.62 600.539C419.62 597.668 413.308 590.664 409.236 587.793C405.164 584.922 384.499 572.259 379.897 572.259C375.296 572.259 293.571 574.559 293.571 574.559L271.725 498.596" fill="white"/>
<path d="M248.636 526.795C248.636 526.795 269.933 595.286 274.534 597.586C279.136 599.887 370.043 577.43 370.043 577.43C370.043 577.43 377.535 583.762 382.137 585.574C385.258 586.855 388.168 588.598 390.769 590.745C390.769 590.745 401.723 603.674 401.153 600.213C400.583 596.752 395.941 591.906 395.941 591.906C395.941 591.906 405.775 602.473 406.935 601.333C408.096 600.192 399.402 590.745 399.402 590.745C399.402 590.745 412.371 602.819 413.206 600.539C413.817 598.889 405.368 589.32 405.368 589.32C405.368 589.32 419.62 603.409 419.62 600.539C419.62 597.668 413.308 590.664 409.236 587.793C405.164 584.922 384.499 572.259 379.897 572.259C375.296 572.259 293.571 574.559 293.571 574.559L271.725 498.596" stroke="#263238" stroke-linecap="round" stroke-linejoin="round"/>
<path d="M380.121 581.013C380.866 583.522 382.561 585.641 384.845 586.918C388.917 589.565 394.882 587.793 397.834 589.87C400.787 591.947 404.329 593.942 405.51 593.698C406.691 593.453 404.044 588.974 402.273 587.793C400.502 586.612 390.749 578.346 390.749 578.346" fill="white"/>
<path d="M380.121 581.013C380.866 583.522 382.561 585.641 384.845 586.918C388.917 589.565 394.882 587.793 397.834 589.87C400.787 591.947 404.329 593.942 405.51 593.698C406.691 593.453 404.044 588.974 402.273 587.793C400.502 586.612 390.749 578.346 390.749 578.346" stroke="#263238" stroke-linecap="round" stroke-linejoin="round"/>
<path d="M269.933 449.121C269.933 449.121 288.908 462.925 292.329 475.019C295.749 487.113 309.024 527.385 305.563 534.857C302.102 542.329 285.997 562.486 284.857 564.196C283.717 565.906 298.661 638.429 299.801 647.672C300.941 656.915 295.729 668.398 282.556 673C269.383 677.601 241.694 680.472 229.62 665.507C217.547 650.543 218.035 632.158 233.081 595.326C237.459 584.597 240.553 574.6 240.553 574.6C240.553 574.6 234.221 521.664 237.683 499.797C241.144 477.931 269.933 449.121 269.933 449.121Z" fill="#5245ED" stroke="#263238" stroke-linecap="round" stroke-linejoin="round"/>
<path d="M255.701 622.141C255.701 622.141 381.77 618.069 393.294 624.299C404.818 630.529 355.587 801.146 355.587 801.146C355.587 801.146 360.311 808.251 364.648 813.932C368.118 818.47 372.124 822.572 376.579 826.148C377.922 826.962 381.73 827.512 380.366 829.405C379.001 831.299 371.977 829.67 365.197 829.141C358.417 828.611 351.923 825.618 350.823 823.705C349.724 821.791 343.514 814.237 341.071 813.138C338.628 812.038 334.576 808.801 336.469 805.279C338.363 801.757 344.328 796.341 344.613 794.447C344.898 792.554 352.757 744.402 353.612 733.856C358.092 672.124 361.756 656.895 361.756 656.895C361.756 656.895 298.64 683.607 257.92 676.013" fill="#5245ED"/>
<path d="M255.701 622.141C255.701 622.141 381.77 618.069 393.294 624.299C404.818 630.529 355.587 801.146 355.587 801.146C355.587 801.146 360.311 808.251 364.648 813.932C368.118 818.47 372.124 822.572 376.579 826.148C377.922 826.962 381.73 827.512 380.366 829.405C379.001 831.299 371.977 829.67 365.197 829.141C358.417 828.611 351.923 825.618 350.823 823.705C349.724 821.791 343.514 814.237 341.071 813.138C338.628 812.038 334.576 808.801 336.469 805.279C338.363 801.757 344.328 796.341 344.613 794.447C344.898 792.554 352.757 744.402 353.612 733.856C358.092 672.124 361.756 656.895 361.756 656.895C361.756 656.895 298.64 683.607 257.92 676.013" stroke="#263238" stroke-linecap="round" stroke-linejoin="round"/>
<path d="M393.294 624.299C388.082 621.509 359.374 620.817 329.527 620.878L330.076 667.849C340.785 664.738 351.325 661.075 361.655 656.875C361.655 656.875 358.071 672.104 353.511 733.836C352.737 744.382 344.776 792.533 344.512 794.427C344.247 796.32 338.281 801.736 336.368 805.258C334.454 808.781 338.526 812.038 340.969 813.117C343.412 814.196 349.642 821.791 350.721 823.684C351.8 825.578 358.316 828.571 365.096 829.12C371.875 829.67 378.92 831.278 380.264 829.385C381.607 827.491 377.821 826.942 376.477 826.127C372.022 822.551 368.016 818.45 364.546 813.911C360.209 808.231 355.486 801.125 355.486 801.125C355.486 801.125 404.818 630.447 393.294 624.299Z" fill="white" stroke="#263238" stroke-linecap="round" stroke-linejoin="round"/>
<path d="M376.66 826.127C374.665 824.615 372.799 822.94 371.081 821.119H357.114L341.926 798.336C339.901 800.473 338.074 802.79 336.469 805.258C334.576 808.781 338.628 812.038 341.071 813.117C343.514 814.196 349.744 821.791 350.823 823.684C351.902 825.578 358.417 828.571 365.197 829.12C371.977 829.67 379.022 831.278 380.366 829.385C381.709 827.491 377.922 826.942 376.66 826.127Z" fill="#263238" stroke="#263238" stroke-linecap="round" stroke-linejoin="round"/>
<path d="M251.344 519.424C251.344 519.424 280.459 584.963 285.305 586.612C290.15 588.262 377.821 555.482 377.821 555.482C377.821 555.482 385.964 560.898 390.769 562.079C394.016 562.97 397.112 564.342 399.952 566.151C399.952 566.151 412.331 577.715 411.374 574.295C410.417 570.874 405.266 566.66 405.266 566.66C405.266 566.66 416.26 576.005 417.278 574.804C418.296 573.602 408.564 565.173 408.564 565.173C408.564 565.173 422.816 575.659 423.407 573.317C423.834 571.607 414.326 563.137 414.326 563.137C414.326 563.137 430.044 575.475 429.698 572.625C429.352 569.775 422.266 563.646 417.93 561.264C413.593 558.882 391.462 548.702 386.983 549.252C382.503 549.802 301.471 561.59 301.471 561.59L270.931 488.701" fill="#5245ED"/>
<path d="M251.344 519.424C251.344 519.424 280.459 584.963 285.305 586.612C290.15 588.262 377.821 555.482 377.821 555.482C377.821 555.482 385.964 560.898 390.769 562.079C394.016 562.97 397.112 564.342 399.952 566.151C399.952 566.151 412.331 577.715 411.374 574.295C410.417 570.874 405.266 566.66 405.266 566.66C405.266 566.66 416.26 576.005 417.278 574.804C418.296 573.602 408.564 565.173 408.564 565.173C408.564 565.173 422.816 575.659 423.407 573.317C423.834 571.607 414.326 563.137 414.326 563.137C414.326 563.137 430.044 575.475 429.698 572.625C429.352 569.775 422.266 563.646 417.93 561.264C413.593 558.882 391.462 548.702 386.983 549.252C382.503 549.802 301.471 561.59 301.471 561.59L270.931 488.701" stroke="#263238" stroke-linecap="round" stroke-linejoin="round"/>
<path d="M417.889 561.305C413.552 558.902 391.421 548.743 386.942 549.293C382.463 549.842 301.43 561.631 301.43 561.631L295.505 547.521L271.786 563.443C277.894 575.761 283.37 586.022 285.244 586.694C290.089 588.445 377.759 555.563 377.759 555.563C377.759 555.563 385.903 560.979 390.708 562.16C393.955 563.051 397.051 564.424 399.891 566.232C399.891 566.232 412.27 577.797 411.313 574.376C410.356 570.956 405.205 566.741 405.205 566.741C405.205 566.741 416.199 576.086 417.217 574.885C418.235 573.684 408.503 565.255 408.503 565.255C408.503 565.255 422.755 575.74 423.345 573.399C423.773 571.689 414.265 563.219 414.265 563.219C414.265 563.219 429.983 575.557 429.637 572.707C429.291 569.856 422.226 563.687 417.889 561.305Z" fill="white" stroke="#263238" stroke-linecap="round" stroke-linejoin="round"/>
<path d="M281.843 677.459H260.323V737.378H281.843V677.459Z" fill="#263238"/>
<path d="M276.448 722.006H265.698V781.926H276.448V722.006Z" fill="#263238"/>
<path d="M269.057 680.492C254.928 680.492 243.241 680.391 240.044 680.126C230.068 679.291 225.589 675.932 225.121 675.545C218.463 669.64 218.218 656.671 217.608 625.378C217.424 616.908 217.241 607.298 216.915 596.121C215.409 546.585 197.329 497.049 197.146 496.56C196.986 496.135 196.913 495.683 196.929 495.229C196.945 494.776 197.051 494.33 197.24 493.917C197.429 493.505 197.698 493.133 198.032 492.825C198.365 492.517 198.756 492.278 199.182 492.122C200.044 491.81 200.993 491.849 201.827 492.229C202.66 492.61 203.312 493.302 203.641 494.158C203.824 494.646 222.29 545.2 223.817 595.958C224.164 607.176 224.347 616.786 224.51 625.276C225.019 651.744 225.304 666.261 229.457 670.19C232.881 672.104 236.715 673.165 240.635 673.285C249.593 674.018 333.191 673.285 334.047 673.285C334.964 673.285 335.845 673.65 336.494 674.299C337.143 674.948 337.508 675.828 337.508 676.746C337.508 677.664 337.143 678.544 336.494 679.194C335.845 679.843 334.964 680.207 334.047 680.207C331.868 680.167 296.034 680.492 269.057 680.492Z" fill="#263238"/>
<path d="M266.716 777.324C266.716 777.324 257.676 787.504 234.445 791.169C222.229 793.042 209.403 795.404 198.306 801.349C191.18 805.116 176.989 813.382 176.989 822.829C176.979 824.215 177.309 825.582 177.95 826.811C178.591 828.039 179.524 829.092 180.667 829.876C181.81 830.66 183.127 831.151 184.504 831.308C185.881 831.464 187.276 831.28 188.565 830.772C189.854 830.263 190.999 829.447 191.899 828.393C192.799 827.339 193.427 826.081 193.727 824.728C194.028 823.375 193.992 821.969 193.622 820.633C193.253 819.298 192.561 818.073 191.608 817.067C197.417 808.34 206.414 802.236 216.671 800.067C234.344 796.219 247.211 797.786 272.091 781.254L266.716 777.324Z" fill="#263238"/>
<path d="M274.392 777.324C274.392 777.324 283.411 787.504 306.662 791.169C318.878 793.042 331.705 795.404 342.781 801.349C349.927 805.116 364.118 813.382 364.118 822.829C364.012 825.001 363.074 827.049 361.499 828.548C359.924 830.047 357.833 830.884 355.659 830.884C353.484 830.884 351.393 830.047 349.818 828.548C348.243 827.049 347.306 825.001 347.199 822.829C347.197 820.684 348.021 818.621 349.5 817.067C343.691 808.34 334.693 802.236 324.437 800.067C306.764 796.219 293.897 797.786 268.996 781.254L274.392 777.324Z" fill="#263238"/>
<path d="M274.188 815.337H267.164C266.422 815.337 265.82 815.938 265.82 816.68V829.874C265.82 830.616 266.422 831.217 267.164 831.217H274.188C274.93 831.217 275.532 830.616 275.532 829.874V816.68C275.532 815.938 274.93 815.337 274.188 815.337Z" fill="#263238"/>
<path d="M272.987 778.77H268.386V831.197H272.987V778.77Z" fill="#263238"/>
<path d="M442.402 602.208H380.162V605.283H442.402V602.208Z" fill="white" stroke="#263238" stroke-linecap="round" stroke-linejoin="round"/>
<path d="M470.621 466.183L478.155 478.216L467.791 567.779L459.708 566.843L470.621 466.183Z" fill="#263238" stroke="#263238" stroke-linecap="round" stroke-linejoin="round"/>
<path d="M472.805 453.795L466.94 453.115L453.583 568.375L459.449 569.055L472.805 453.795Z" fill="white" stroke="#263238" stroke-linecap="round" stroke-linejoin="round"/>
<path d="M470.764 542.085L467.405 601.211H448.185V605.792H467.405H471.843V601.211L475.162 542.594L470.764 542.085Z" fill="white" stroke="#263238" stroke-linecap="round" stroke-linejoin="round"/>
<path d="M581.115 605.282H643.356V602.208H581.115V605.282Z" fill="white" stroke="#263238" stroke-linecap="round" stroke-linejoin="round"/>
<path d="M552.876 466.183L545.343 478.216L555.726 567.779L563.809 566.843L552.876 466.183Z" fill="#263238" stroke="#263238" stroke-linecap="round" stroke-linejoin="round"/>
<path d="M564.081 569.051L569.946 568.371L556.589 453.111L550.724 453.791L564.081 569.051Z" fill="white" stroke="#263238" stroke-linecap="round" stroke-linejoin="round"/>
<path d="M552.754 542.085L556.113 601.211H575.313V605.792H556.113H551.675V601.211L548.356 542.594L552.754 542.085Z" fill="white" stroke="#263238" stroke-linecap="round" stroke-linejoin="round"/>
<path d="M388.021 608.886L508.511 803.874L650.421 608.886" stroke="#263238" stroke-width="3" stroke-linecap="round" stroke-linejoin="round"/>
<path d="M667.503 605.242H370.939V611.39H667.503V605.242Z" fill="white" stroke="#263238" stroke-linecap="round" stroke-linejoin="round"/>
<path d="M523.985 498.27H492.956V821.892H523.985V498.27Z" fill="#263238" stroke="#263238" stroke-linecap="round" stroke-linejoin="round"/>
<path d="M428.089 648.466H420.006V701.789H428.089V648.466Z" fill="white" stroke="#263238" stroke-linecap="round" stroke-linejoin="round"/>
<path d="M428.089 708.956H420.006V762.278H428.089V708.956Z" fill="white" stroke="#263238" stroke-linecap="round" stroke-linejoin="round"/>
<path d="M428.089 769.465H420.006V822.788H428.089V769.465Z" fill="white" stroke="#263238" stroke-linecap="round" stroke-linejoin="round"/>
<path d="M593.759 640.566H424.73V830.342H593.759V640.566Z" fill="#263238" stroke="#263238" stroke-linecap="round" stroke-linejoin="round"/>
<path d="M99.1736 830.342H952.848" stroke="#263238" stroke-linecap="round" stroke-linejoin="round"/>
</svg>
