<svg width="435" height="152" viewBox="0 0 435 152" fill="none" xmlns="http://www.w3.org/2000/svg">
<circle cx="32" cy="32" r="31.5" fill="white" stroke="#E0DEF7"/>
<circle cx="32" cy="32" r="28" fill="#E0DEF7"/>
<path d="M39.3734 26.36C39.2801 26.3467 39.1867 26.3467 39.0934 26.36C37.0267 26.2934 35.3867 24.6 35.3867 22.52C35.3867 20.4 37.1067 18.6667 39.2401 18.6667C41.3601 18.6667 43.0934 20.3867 43.0934 22.52C43.0801 24.6 41.4401 26.2934 39.3734 26.36Z" fill="white"/>
<path d="M43.72 35.6C42.2266 36.6 40.1333 36.9733 38.2 36.72C38.7066 35.6267 38.9733 34.4133 38.9866 33.1333C38.9866 31.8 38.6933 30.5333 38.1333 29.4267C40.1066 29.16 42.2 29.5333 43.7066 30.5333C45.8133 31.92 45.8133 34.2 43.72 35.6Z" fill="white"/>
<path d="M24.5867 26.36C24.68 26.3467 24.7733 26.3467 24.8667 26.36C26.9333 26.2934 28.5733 24.6 28.5733 22.52C28.5733 20.3867 26.8533 18.6667 24.72 18.6667C22.6 18.6667 20.88 20.3867 20.88 22.52C20.88 24.6 22.52 26.2934 24.5867 26.36Z" fill="white"/>
<path d="M24.7334 33.1333C24.7334 34.4267 25.0134 35.6533 25.52 36.76C23.64 36.96 21.68 36.56 20.24 35.6133C18.1334 34.2133 18.1334 31.9333 20.24 30.5333C21.6667 29.5733 23.68 29.1867 25.5734 29.4C25.0267 30.52 24.7334 31.7867 24.7334 33.1333Z" fill="white"/>
<path d="M32.16 37.16C32.0534 37.1467 31.9334 37.1467 31.8134 37.16C29.36 37.08 27.4 35.0667 27.4 32.5867C27.4134 30.0533 29.4534 28 32 28C34.5334 28 36.5867 30.0533 36.5867 32.5867C36.5734 35.0667 34.6267 37.08 32.16 37.16Z" fill="white"/>
<path d="M27.8267 39.92C25.8133 41.2667 25.8133 43.48 27.8267 44.8134C30.12 46.3467 33.88 46.3467 36.1733 44.8134C38.1867 43.4667 38.1867 41.2534 36.1733 39.92C33.8933 38.3867 30.1333 38.3867 27.8267 39.92Z" fill="white"/>
<path d="M40 48C40 43.5817 43.5817 40 48 40H56C60.4183 40 64 43.5817 64 48V56C64 60.4183 60.4183 64 56 64H48C43.5817 64 40 60.4183 40 56V48Z" fill="#7065F0"/>
<path d="M57.1934 53.9533C55.8201 55.32 53.8534 55.74 52.1267 55.2L48.9867 58.3333C48.7601 58.5667 48.3134 58.7067 47.9934 58.66L46.5401 58.46C46.0601 58.3933 45.6134 57.94 45.5401 57.46L45.3401 56.0067C45.2934 55.6867 45.4467 55.24 45.6667 55.0133L48.8001 51.88C48.2667 50.1467 48.6801 48.18 50.0534 46.8133C52.0201 44.8467 55.2134 44.8467 57.1867 46.8133C59.1601 48.78 59.1601 51.9867 57.1934 53.9533Z" fill="white"/>
<path d="M48.5934 55.66L50.1267 57.1933" stroke="#7065F0" stroke-width="2" stroke-miterlimit="10" stroke-linecap="round" stroke-linejoin="round"/>
<path d="M53.6666 51.3333C54.2189 51.3333 54.6666 50.8856 54.6666 50.3333C54.6666 49.781 54.2189 49.3333 53.6666 49.3333C53.1143 49.3333 52.6666 49.781 52.6666 50.3333C52.6666 50.8856 53.1143 51.3333 53.6666 51.3333Z" fill="#7065F0" stroke="#7065F0" stroke-width="2" stroke-linecap="round" stroke-linejoin="round"/>
<path d="M7.128 116.288C6.184 116.288 5.28 116.112 4.416 115.76C3.568 115.408 2.832 114.912 2.208 114.272C1.6 113.616 1.184 112.84 0.96 111.944L3.792 110.936C4.064 111.752 4.504 112.36 5.112 112.76C5.72 113.144 6.392 113.336 7.128 113.336C7.736 113.336 8.272 113.208 8.736 112.952C9.216 112.68 9.584 112.312 9.84 111.848C10.096 111.368 10.224 110.816 10.224 110.192C10.224 109.568 10.088 109.024 9.816 108.56C9.56 108.096 9.2 107.736 8.736 107.48C8.272 107.208 7.736 107.072 7.128 107.072C6.504 107.072 5.936 107.208 5.424 107.48C4.928 107.752 4.568 108.144 4.344 108.656L1.68 108.056L3.096 98.12H12.84V100.88H4.392L5.616 99.464L4.608 106.952L3.672 106.184C4.12 105.528 4.664 105.048 5.304 104.744C5.96 104.44 6.752 104.288 7.68 104.288C8.864 104.288 9.888 104.544 10.752 105.056C11.632 105.568 12.312 106.264 12.792 107.144C13.272 108.024 13.512 109.04 13.512 110.192C13.512 111.344 13.232 112.384 12.672 113.312C12.112 114.24 11.352 114.968 10.392 115.496C9.432 116.024 8.344 116.288 7.128 116.288ZM16.2536 116V98.12H19.5176V107.432L18.6296 107.12L26.2376 98.12H30.3416L23.2136 106.568L23.4056 104.264L30.5576 116H26.7176L21.9176 108.128L19.5176 110.984V116H16.2536ZM37.1507 116V111.344H32.4947V108.632H37.1507V104H39.8627V108.632H44.4947V111.344H39.8627V116H37.1507ZM57.9561 116.288C56.6601 116.288 55.4921 115.992 54.4521 115.4C53.4281 114.792 52.6201 113.976 52.0281 112.952C51.4361 111.912 51.1401 110.744 51.1401 109.448C51.1401 108.152 51.4361 106.992 52.0281 105.968C52.6201 104.944 53.4281 104.136 54.4521 103.544C55.4921 102.952 56.6601 102.656 57.9561 102.656C58.8841 102.656 59.7481 102.824 60.5481 103.16C61.3481 103.48 62.0361 103.928 62.6121 104.504C63.2041 105.064 63.6281 105.736 63.8841 106.52L61.1241 107.72C60.8841 107.064 60.4761 106.536 59.9001 106.136C59.3401 105.736 58.6921 105.536 57.9561 105.536C57.2681 105.536 56.6521 105.704 56.1081 106.04C55.5801 106.376 55.1641 106.84 54.8601 107.432C54.5561 108.024 54.4041 108.704 54.4041 109.472C54.4041 110.24 54.5561 110.92 54.8601 111.512C55.1641 112.104 55.5801 112.568 56.1081 112.904C56.6521 113.24 57.2681 113.408 57.9561 113.408C58.7081 113.408 59.3641 113.208 59.9241 112.808C60.4841 112.408 60.8841 111.872 61.1241 111.2L63.8841 112.448C63.6281 113.184 63.2121 113.848 62.6361 114.44C62.0601 115.016 61.3721 115.472 60.5721 115.808C59.7721 116.128 58.9001 116.288 57.9561 116.288ZM70.6856 116.288C69.6776 116.288 68.7976 116.064 68.0456 115.616C67.3096 115.168 66.7416 114.544 66.3416 113.744C65.9576 112.944 65.7656 112.008 65.7656 110.936V102.944H68.9096V110.672C68.9096 111.216 69.0136 111.696 69.2216 112.112C69.4456 112.512 69.7576 112.832 70.1576 113.072C70.5736 113.296 71.0376 113.408 71.5496 113.408C72.0616 113.408 72.5176 113.296 72.9176 113.072C73.3176 112.832 73.6296 112.504 73.8536 112.088C74.0776 111.672 74.1896 111.176 74.1896 110.6V102.944H77.3336V116H74.3576V113.432L74.6216 113.888C74.3176 114.688 73.8136 115.288 73.1096 115.688C72.4216 116.088 71.6136 116.288 70.6856 116.288ZM84.9842 116.288C83.5922 116.288 82.3762 115.96 81.3362 115.304C80.3122 114.632 79.6082 113.728 79.2242 112.592L81.5762 111.464C81.9122 112.2 82.3762 112.776 82.9682 113.192C83.5762 113.608 84.2482 113.816 84.9842 113.816C85.5602 113.816 86.0162 113.688 86.3522 113.432C86.6882 113.176 86.8562 112.84 86.8562 112.424C86.8562 112.168 86.7842 111.96 86.6402 111.8C86.5122 111.624 86.3282 111.48 86.0882 111.368C85.8642 111.24 85.6162 111.136 85.3442 111.056L83.2082 110.456C82.1042 110.136 81.2642 109.648 80.6882 108.992C80.1282 108.336 79.8482 107.56 79.8482 106.664C79.8482 105.864 80.0482 105.168 80.4482 104.576C80.8642 103.968 81.4322 103.496 82.1522 103.16C82.8882 102.824 83.7282 102.656 84.6722 102.656C85.9042 102.656 86.9922 102.952 87.9362 103.544C88.8802 104.136 89.5522 104.968 89.9522 106.04L87.5522 107.168C87.3282 106.576 86.9522 106.104 86.4242 105.752C85.8962 105.4 85.3042 105.224 84.6482 105.224C84.1202 105.224 83.7042 105.344 83.4002 105.584C83.0962 105.824 82.9442 106.136 82.9442 106.52C82.9442 106.76 83.0082 106.968 83.1362 107.144C83.2642 107.32 83.4402 107.464 83.6642 107.576C83.9042 107.688 84.1762 107.792 84.4802 107.888L86.5682 108.512C87.6402 108.832 88.4642 109.312 89.0402 109.952C89.6322 110.592 89.9282 111.376 89.9282 112.304C89.9282 113.088 89.7202 113.784 89.3042 114.392C88.8882 114.984 88.3122 115.448 87.5762 115.784C86.8402 116.12 85.9762 116.288 84.9842 116.288ZM98.0563 116.144C96.5843 116.144 95.4403 115.744 94.6243 114.944C93.8243 114.128 93.4243 112.984 93.4243 111.512V105.752H91.1683V102.944H91.4083C92.0483 102.944 92.5443 102.776 92.8963 102.44C93.2483 102.104 93.4243 101.616 93.4243 100.976V99.968H96.5683V102.944H99.5683V105.752H96.5683V111.344C96.5683 111.776 96.6403 112.144 96.7843 112.448C96.9443 112.752 97.1843 112.984 97.5043 113.144C97.8403 113.304 98.2643 113.384 98.7763 113.384C98.8883 113.384 99.0163 113.376 99.1603 113.36C99.3203 113.344 99.4723 113.328 99.6163 113.312V116C99.3923 116.032 99.1363 116.064 98.8483 116.096C98.5603 116.128 98.2963 116.144 98.0563 116.144ZM108.045 116.288C106.765 116.288 105.597 115.992 104.541 115.4C103.501 114.808 102.669 114 102.045 112.976C101.437 111.952 101.133 110.784 101.133 109.472C101.133 108.16 101.437 106.992 102.045 105.968C102.669 104.944 103.501 104.136 104.541 103.544C105.581 102.952 106.749 102.656 108.045 102.656C109.325 102.656 110.485 102.952 111.525 103.544C112.565 104.136 113.389 104.944 113.997 105.968C114.621 106.976 114.933 108.144 114.933 109.472C114.933 110.784 114.621 111.952 113.997 112.976C113.373 114 112.541 114.808 111.501 115.4C110.461 115.992 109.309 116.288 108.045 116.288ZM108.045 113.408C108.749 113.408 109.365 113.24 109.893 112.904C110.437 112.568 110.861 112.104 111.165 111.512C111.485 110.904 111.645 110.224 111.645 109.472C111.645 108.704 111.485 108.032 111.165 107.456C110.861 106.864 110.437 106.4 109.893 106.064C109.365 105.712 108.749 105.536 108.045 105.536C107.325 105.536 106.693 105.712 106.149 106.064C105.605 106.4 105.173 106.864 104.853 107.456C104.549 108.032 104.397 108.704 104.397 109.472C104.397 110.224 104.549 110.904 104.853 111.512C105.173 112.104 105.605 112.568 106.149 112.904C106.693 113.24 107.325 113.408 108.045 113.408ZM117.077 116V102.944H120.029V105.968L119.693 105.464C119.933 104.52 120.413 103.816 121.133 103.352C121.853 102.888 122.701 102.656 123.677 102.656C124.749 102.656 125.693 102.936 126.509 103.496C127.325 104.056 127.853 104.792 128.093 105.704L127.205 105.776C127.605 104.736 128.205 103.96 129.005 103.448C129.805 102.92 130.725 102.656 131.765 102.656C132.693 102.656 133.517 102.864 134.237 103.28C134.973 103.696 135.549 104.28 135.965 105.032C136.381 105.768 136.589 106.624 136.589 107.6V116H133.445V108.344C133.445 107.768 133.341 107.272 133.133 106.856C132.925 106.44 132.637 106.12 132.269 105.896C131.901 105.656 131.453 105.536 130.925 105.536C130.429 105.536 129.989 105.656 129.605 105.896C129.221 106.12 128.925 106.44 128.717 106.856C128.509 107.272 128.405 107.768 128.405 108.344V116H125.261V108.344C125.261 107.768 125.157 107.272 124.949 106.856C124.741 106.44 124.445 106.12 124.061 105.896C123.693 105.656 123.253 105.536 122.741 105.536C122.245 105.536 121.805 105.656 121.421 105.896C121.037 106.12 120.741 106.44 120.533 106.856C120.325 107.272 120.221 107.768 120.221 108.344V116H117.077ZM145.201 116.288C143.857 116.288 142.681 115.984 141.673 115.376C140.665 114.768 139.881 113.944 139.321 112.904C138.761 111.864 138.481 110.712 138.481 109.448C138.481 108.136 138.761 106.976 139.321 105.968C139.897 104.944 140.673 104.136 141.649 103.544C142.641 102.952 143.745 102.656 144.961 102.656C145.985 102.656 146.881 102.824 147.649 103.16C148.433 103.496 149.097 103.96 149.641 104.552C150.185 105.144 150.601 105.824 150.889 106.592C151.177 107.344 151.321 108.16 151.321 109.04C151.321 109.264 151.305 109.496 151.273 109.736C151.257 109.976 151.217 110.184 151.153 110.36H141.073V107.96H149.377L147.889 109.088C148.033 108.352 147.993 107.696 147.769 107.12C147.561 106.544 147.209 106.088 146.713 105.752C146.233 105.416 145.649 105.248 144.961 105.248C144.305 105.248 143.721 105.416 143.209 105.752C142.697 106.072 142.305 106.552 142.033 107.192C141.777 107.816 141.681 108.576 141.745 109.472C141.681 110.272 141.785 110.984 142.057 111.608C142.345 112.216 142.761 112.688 143.305 113.024C143.865 113.36 144.505 113.528 145.225 113.528C145.945 113.528 146.553 113.376 147.049 113.072C147.561 112.768 147.961 112.36 148.249 111.848L150.793 113.096C150.537 113.72 150.137 114.272 149.593 114.752C149.049 115.232 148.401 115.608 147.649 115.88C146.913 116.152 146.097 116.288 145.201 116.288ZM153.465 116V102.944H156.417V105.848L156.177 105.416C156.481 104.44 156.953 103.76 157.593 103.376C158.249 102.992 159.033 102.8 159.945 102.8H160.713V105.584H159.585C158.689 105.584 157.969 105.864 157.425 106.424C156.881 106.968 156.609 107.736 156.609 108.728V116H153.465ZM167.169 116.288C165.777 116.288 164.561 115.96 163.521 115.304C162.497 114.632 161.793 113.728 161.409 112.592L163.761 111.464C164.097 112.2 164.561 112.776 165.153 113.192C165.761 113.608 166.433 113.816 167.169 113.816C167.745 113.816 168.201 113.688 168.537 113.432C168.873 113.176 169.041 112.84 169.041 112.424C169.041 112.168 168.969 111.96 168.825 111.8C168.697 111.624 168.513 111.48 168.273 111.368C168.049 111.24 167.801 111.136 167.529 111.056L165.393 110.456C164.289 110.136 163.449 109.648 162.873 108.992C162.313 108.336 162.033 107.56 162.033 106.664C162.033 105.864 162.233 105.168 162.633 104.576C163.049 103.968 163.617 103.496 164.337 103.16C165.073 102.824 165.913 102.656 166.857 102.656C168.089 102.656 169.177 102.952 170.121 103.544C171.065 104.136 171.737 104.968 172.137 106.04L169.737 107.168C169.513 106.576 169.137 106.104 168.609 105.752C168.081 105.4 167.489 105.224 166.833 105.224C166.305 105.224 165.889 105.344 165.585 105.584C165.281 105.824 165.129 106.136 165.129 106.52C165.129 106.76 165.193 106.968 165.321 107.144C165.449 107.32 165.625 107.464 165.849 107.576C166.089 107.688 166.361 107.792 166.665 107.888L168.753 108.512C169.825 108.832 170.649 109.312 171.225 109.952C171.817 110.592 172.113 111.376 172.113 112.304C172.113 113.088 171.905 113.784 171.489 114.392C171.073 114.984 170.497 115.448 169.761 115.784C169.025 116.12 168.161 116.288 167.169 116.288Z" fill="#7065F0"/>
<path d="M4.656 147.096C3.81333 147.096 3.16267 146.856 2.704 146.376C2.256 145.896 2.032 145.219 2.032 144.344V139.8H0.464V138.376H0.784C1.168 138.376 1.472 138.259 1.696 138.024C1.92 137.789 2.032 137.48 2.032 137.096V136.392H3.52V138.376H5.456V139.8H3.52V144.296C3.52 144.584 3.56267 144.835 3.648 145.048C3.744 145.261 3.89867 145.432 4.112 145.56C4.32533 145.677 4.608 145.736 4.96 145.736C5.03467 145.736 5.12533 145.731 5.232 145.72C5.34933 145.709 5.456 145.699 5.552 145.688V147C5.41333 147.032 5.25867 147.053 5.088 147.064C4.91733 147.085 4.77333 147.096 4.656 147.096ZM7.49575 147V138.376H8.95175V139.96L8.79175 139.736C8.99442 139.245 9.30375 138.883 9.71975 138.648C10.1358 138.403 10.6424 138.28 11.2398 138.28H11.7678V139.688H11.0158C10.4078 139.688 9.91708 139.88 9.54375 140.264C9.17042 140.637 8.98375 141.171 8.98375 141.864V147H7.49575ZM16.1455 147.192C15.5268 147.192 14.9668 147.048 14.4655 146.76C13.9748 146.472 13.5908 146.072 13.3135 145.56C13.0468 145.037 12.9135 144.44 12.9135 143.768V138.376H14.4015V143.608C14.4015 144.035 14.4868 144.408 14.6575 144.728C14.8388 145.048 15.0842 145.299 15.3935 145.48C15.7135 145.661 16.0762 145.752 16.4815 145.752C16.8868 145.752 17.2442 145.661 17.5535 145.48C17.8735 145.299 18.1188 145.037 18.2895 144.696C18.4708 144.355 18.5615 143.949 18.5615 143.48V138.376H20.0655V147H18.6095V145.32L18.8495 145.464C18.6468 146.008 18.3002 146.435 17.8095 146.744C17.3295 147.043 16.7748 147.192 16.1455 147.192ZM25.4588 147.192C24.5948 147.192 23.8428 146.979 23.2028 146.552C22.5628 146.125 22.1094 145.549 21.8428 144.824L23.0268 144.248C23.2721 144.76 23.6081 145.165 24.0348 145.464C24.4614 145.763 24.9361 145.912 25.4588 145.912C25.9281 145.912 26.3174 145.8 26.6268 145.576C26.9361 145.352 27.0908 145.059 27.0908 144.696C27.0908 144.44 27.0161 144.237 26.8668 144.088C26.7281 143.928 26.5574 143.805 26.3548 143.72C26.1521 143.624 25.9654 143.555 25.7948 143.512L24.4988 143.144C23.7201 142.92 23.1494 142.6 22.7868 142.184C22.4348 141.768 22.2588 141.283 22.2588 140.728C22.2588 140.216 22.3868 139.773 22.6428 139.4C22.9094 139.016 23.2668 138.717 23.7148 138.504C24.1734 138.291 24.6854 138.184 25.2508 138.184C26.0081 138.184 26.6854 138.376 27.2828 138.76C27.8908 139.144 28.3228 139.683 28.5788 140.376L27.3628 140.936C27.1708 140.488 26.8828 140.136 26.4988 139.88C26.1148 139.613 25.6828 139.48 25.2028 139.48C24.7654 139.48 24.4188 139.592 24.1628 139.816C23.9068 140.029 23.7788 140.301 23.7788 140.632C23.7788 140.877 23.8428 141.08 23.9708 141.24C24.0988 141.389 24.2534 141.507 24.4348 141.592C24.6161 141.667 24.7921 141.731 24.9628 141.784L26.3708 142.2C27.0748 142.403 27.6188 142.717 28.0028 143.144C28.3974 143.571 28.5948 144.083 28.5948 144.68C28.5948 145.16 28.4614 145.592 28.1948 145.976C27.9281 146.36 27.5601 146.659 27.0908 146.872C26.6214 147.085 26.0774 147.192 25.4588 147.192ZM34.0466 147.096C33.204 147.096 32.5533 146.856 32.0946 146.376C31.6466 145.896 31.4226 145.219 31.4226 144.344V139.8H29.8546V138.376H30.1746C30.5586 138.376 30.8626 138.259 31.0866 138.024C31.3106 137.789 31.4226 137.48 31.4226 137.096V136.392H32.9106V138.376H34.8466V139.8H32.9106V144.296C32.9106 144.584 32.9533 144.835 33.0386 145.048C33.1346 145.261 33.2893 145.432 33.5026 145.56C33.716 145.677 33.9986 145.736 34.3506 145.736C34.4253 145.736 34.516 145.731 34.6226 145.72C34.74 145.709 34.8466 145.699 34.9426 145.688V147C34.804 147.032 34.6493 147.053 34.4786 147.064C34.308 147.085 34.164 147.096 34.0466 147.096ZM43.748 147.192C42.916 147.192 42.164 147 41.492 146.616C40.82 146.221 40.2867 145.683 39.892 145C39.4973 144.317 39.3 143.544 39.3 142.68C39.3 141.816 39.492 141.048 39.876 140.376C40.2707 139.704 40.804 139.171 41.476 138.776C42.148 138.381 42.9053 138.184 43.748 138.184C44.58 138.184 45.332 138.381 46.004 138.776C46.676 139.16 47.204 139.688 47.588 140.36C47.9827 141.032 48.18 141.805 48.18 142.68C48.18 143.555 47.9773 144.333 47.572 145.016C47.1667 145.688 46.628 146.221 45.956 146.616C45.2947 147 44.5587 147.192 43.748 147.192ZM43.748 145.752C44.2813 145.752 44.7613 145.619 45.188 145.352C45.6253 145.085 45.9667 144.717 46.212 144.248C46.468 143.779 46.596 143.256 46.596 142.68C46.596 142.093 46.468 141.576 46.212 141.128C45.9667 140.669 45.6253 140.307 45.188 140.04C44.7613 139.763 44.2813 139.624 43.748 139.624C43.204 139.624 42.7133 139.763 42.276 140.04C41.8493 140.307 41.508 140.669 41.252 141.128C40.996 141.576 40.868 142.093 40.868 142.68C40.868 143.256 40.996 143.779 41.252 144.248C41.508 144.717 41.8493 145.085 42.276 145.352C42.7133 145.619 43.204 145.752 43.748 145.752ZM53.1768 147.192C52.5581 147.192 51.9981 147.048 51.4968 146.76C51.0061 146.472 50.6221 146.072 50.3448 145.56C50.0781 145.037 49.9448 144.44 49.9448 143.768V138.376H51.4328V143.608C51.4328 144.035 51.5181 144.408 51.6888 144.728C51.8701 145.048 52.1154 145.299 52.4248 145.48C52.7448 145.661 53.1074 145.752 53.5128 145.752C53.9181 145.752 54.2754 145.661 54.5848 145.48C54.9048 145.299 55.1501 145.037 55.3208 144.696C55.5021 144.355 55.5928 143.949 55.5928 143.48V138.376H57.0968V147H55.6408V145.32L55.8808 145.464C55.6781 146.008 55.3314 146.435 54.8408 146.744C54.3608 147.043 53.8061 147.192 53.1768 147.192ZM59.402 147V138.376H60.858V139.96L60.698 139.736C60.9007 139.245 61.21 138.883 61.626 138.648C62.042 138.403 62.5487 138.28 63.146 138.28H63.674V139.688H62.922C62.314 139.688 61.8233 139.88 61.45 140.264C61.0767 140.637 60.89 141.171 60.89 141.864V147H59.402ZM70.8494 147.192C69.9854 147.192 69.2334 146.979 68.5934 146.552C67.9534 146.125 67.5 145.549 67.2334 144.824L68.4174 144.248C68.6627 144.76 68.9987 145.165 69.4254 145.464C69.852 145.763 70.3267 145.912 70.8494 145.912C71.3187 145.912 71.708 145.8 72.0174 145.576C72.3267 145.352 72.4814 145.059 72.4814 144.696C72.4814 144.44 72.4067 144.237 72.2574 144.088C72.1187 143.928 71.948 143.805 71.7454 143.72C71.5427 143.624 71.356 143.555 71.1854 143.512L69.8894 143.144C69.1107 142.92 68.54 142.6 68.1774 142.184C67.8254 141.768 67.6494 141.283 67.6494 140.728C67.6494 140.216 67.7774 139.773 68.0334 139.4C68.3 139.016 68.6574 138.717 69.1054 138.504C69.564 138.291 70.076 138.184 70.6414 138.184C71.3987 138.184 72.076 138.376 72.6734 138.76C73.2814 139.144 73.7134 139.683 73.9694 140.376L72.7534 140.936C72.5614 140.488 72.2734 140.136 71.8894 139.88C71.5054 139.613 71.0734 139.48 70.5934 139.48C70.156 139.48 69.8094 139.592 69.5534 139.816C69.2974 140.029 69.1694 140.301 69.1694 140.632C69.1694 140.877 69.2334 141.08 69.3614 141.24C69.4894 141.389 69.644 141.507 69.8254 141.592C70.0067 141.667 70.1827 141.731 70.3534 141.784L71.7614 142.2C72.4654 142.403 73.0094 142.717 73.3934 143.144C73.788 143.571 73.9854 144.083 73.9854 144.68C73.9854 145.16 73.852 145.592 73.5854 145.976C73.3187 146.36 72.9507 146.659 72.4814 146.872C72.012 147.085 71.468 147.192 70.8494 147.192ZM79.9013 147.192C79.0693 147.192 78.3279 146.995 77.6773 146.6C77.0266 146.205 76.5146 145.667 76.1413 144.984C75.7679 144.291 75.5813 143.517 75.5813 142.664C75.5813 141.8 75.7626 141.032 76.1253 140.36C76.4986 139.688 76.9999 139.16 77.6293 138.776C78.2693 138.381 78.9839 138.184 79.7733 138.184C80.4133 138.184 80.9786 138.301 81.4693 138.536C81.9706 138.76 82.3919 139.069 82.7333 139.464C83.0853 139.848 83.3519 140.291 83.5333 140.792C83.7253 141.283 83.8212 141.795 83.8212 142.328C83.8212 142.445 83.8106 142.579 83.7893 142.728C83.7786 142.867 83.7626 143 83.7413 143.128H76.6693V141.848H82.8773L82.1733 142.424C82.2693 141.869 82.2159 141.373 82.0133 140.936C81.8106 140.499 81.5119 140.152 81.1173 139.896C80.7226 139.64 80.2746 139.512 79.7733 139.512C79.2719 139.512 78.8133 139.64 78.3973 139.896C77.9813 140.152 77.6559 140.52 77.4213 141C77.1973 141.469 77.1066 142.029 77.1493 142.68C77.1066 143.309 77.2026 143.864 77.4373 144.344C77.6826 144.813 78.0239 145.181 78.4613 145.448C78.9093 145.704 79.3946 145.832 79.9173 145.832C80.4933 145.832 80.9786 145.699 81.3733 145.432C81.7679 145.165 82.0879 144.824 82.3333 144.408L83.5813 145.048C83.4106 145.443 83.1439 145.805 82.7812 146.136C82.4293 146.456 82.0079 146.712 81.5173 146.904C81.0373 147.096 80.4986 147.192 79.9013 147.192ZM85.7614 147V138.376H87.2174V139.96L87.0574 139.736C87.26 139.245 87.5694 138.883 87.9854 138.648C88.4014 138.403 88.908 138.28 89.5054 138.28H90.0334V139.688H89.2814C88.6734 139.688 88.1827 139.88 87.8094 140.264C87.436 140.637 87.2494 141.171 87.2494 141.864V147H85.7614ZM93.7551 147L90.3791 138.376H92.0431L94.7471 145.672H94.1711L96.8911 138.376H98.5551L95.1631 147H93.7551ZM99.8864 147V138.376H101.374V147H99.8864ZM99.8864 137V135.08H101.374V137H99.8864ZM107.683 147.192C106.841 147.192 106.089 146.995 105.427 146.6C104.777 146.205 104.265 145.667 103.891 144.984C103.518 144.301 103.331 143.533 103.331 142.68C103.331 141.816 103.518 141.048 103.891 140.376C104.265 139.704 104.777 139.171 105.427 138.776C106.089 138.381 106.841 138.184 107.683 138.184C108.249 138.184 108.777 138.285 109.267 138.488C109.758 138.691 110.19 138.963 110.563 139.304C110.937 139.645 111.209 140.045 111.379 140.504L110.051 141.144C109.849 140.696 109.539 140.333 109.123 140.056C108.707 139.768 108.227 139.624 107.683 139.624C107.161 139.624 106.686 139.757 106.259 140.024C105.843 140.291 105.513 140.653 105.267 141.112C105.022 141.571 104.899 142.099 104.899 142.696C104.899 143.272 105.022 143.795 105.267 144.264C105.513 144.723 105.843 145.085 106.259 145.352C106.686 145.619 107.161 145.752 107.683 145.752C108.227 145.752 108.707 145.613 109.123 145.336C109.539 145.048 109.849 144.669 110.051 144.2L111.379 144.872C111.209 145.32 110.937 145.72 110.563 146.072C110.19 146.413 109.758 146.685 109.267 146.888C108.777 147.091 108.249 147.192 107.683 147.192ZM117.292 147.192C116.46 147.192 115.719 146.995 115.068 146.6C114.417 146.205 113.905 145.667 113.532 144.984C113.159 144.291 112.972 143.517 112.972 142.664C112.972 141.8 113.153 141.032 113.516 140.36C113.889 139.688 114.391 139.16 115.02 138.776C115.66 138.381 116.375 138.184 117.164 138.184C117.804 138.184 118.369 138.301 118.86 138.536C119.361 138.76 119.783 139.069 120.124 139.464C120.476 139.848 120.743 140.291 120.924 140.792C121.116 141.283 121.212 141.795 121.212 142.328C121.212 142.445 121.201 142.579 121.18 142.728C121.169 142.867 121.153 143 121.132 143.128H114.06V141.848H120.268L119.564 142.424C119.66 141.869 119.607 141.373 119.404 140.936C119.201 140.499 118.903 140.152 118.508 139.896C118.113 139.64 117.665 139.512 117.164 139.512C116.663 139.512 116.204 139.64 115.788 139.896C115.372 140.152 115.047 140.52 114.812 141C114.588 141.469 114.497 142.029 114.54 142.68C114.497 143.309 114.593 143.864 114.828 144.344C115.073 144.813 115.415 145.181 115.852 145.448C116.3 145.704 116.785 145.832 117.308 145.832C117.884 145.832 118.369 145.699 118.764 145.432C119.159 145.165 119.479 144.824 119.724 144.408L120.972 145.048C120.801 145.443 120.535 145.805 120.172 146.136C119.82 146.456 119.399 146.712 118.908 146.904C118.428 147.096 117.889 147.192 117.292 147.192ZM123.76 147V145.08H125.312V147H123.76Z" fill="#000929"/>
<circle cx="286" cy="32" r="31.5" fill="white" stroke="#E0DEF7"/>
<circle cx="286" cy="32" r="28" fill="#E0DEF7"/>
<path d="M293.373 26.36C293.28 26.3467 293.187 26.3467 293.093 26.36C291.027 26.2934 289.387 24.6 289.387 22.52C289.387 20.4 291.107 18.6667 293.24 18.6667C295.36 18.6667 297.093 20.3867 297.093 22.52C297.08 24.6 295.44 26.2934 293.373 26.36Z" fill="white"/>
<path d="M297.72 35.6C296.227 36.6 294.133 36.9733 292.2 36.72C292.707 35.6267 292.973 34.4133 292.987 33.1333C292.987 31.8 292.693 30.5333 292.133 29.4267C294.107 29.16 296.2 29.5333 297.707 30.5333C299.813 31.92 299.813 34.2 297.72 35.6Z" fill="white"/>
<path d="M278.587 26.36C278.68 26.3467 278.773 26.3467 278.867 26.36C280.933 26.2934 282.573 24.6 282.573 22.52C282.573 20.3867 280.853 18.6667 278.72 18.6667C276.6 18.6667 274.88 20.3867 274.88 22.52C274.88 24.6 276.52 26.2934 278.587 26.36Z" fill="white"/>
<path d="M278.733 33.1333C278.733 34.4267 279.013 35.6533 279.52 36.76C277.64 36.96 275.68 36.56 274.24 35.6133C272.133 34.2133 272.133 31.9333 274.24 30.5333C275.667 29.5733 277.68 29.1867 279.573 29.4C279.027 30.52 278.733 31.7867 278.733 33.1333Z" fill="white"/>
<path d="M286.16 37.16C286.053 37.1467 285.933 37.1467 285.813 37.16C283.36 37.08 281.4 35.0667 281.4 32.5867C281.413 30.0533 283.453 28 286 28C288.533 28 290.587 30.0533 290.587 32.5867C290.573 35.0667 288.627 37.08 286.16 37.16Z" fill="white"/>
<path d="M281.827 39.92C279.813 41.2667 279.813 43.48 281.827 44.8134C284.12 46.3467 287.88 46.3467 290.173 44.8134C292.187 43.4667 292.187 41.2534 290.173 39.92C287.893 38.3867 284.133 38.3867 281.827 39.92Z" fill="white"/>
<path d="M294 48C294 43.5817 297.582 40 302 40H310C314.418 40 318 43.5817 318 48V56C318 60.4183 314.418 64 310 64H302C297.582 64 294 60.4183 294 56V48Z" fill="#7065F0"/>
<path d="M311.193 53.9533C309.82 55.32 307.853 55.74 306.127 55.2L302.987 58.3333C302.76 58.5667 302.313 58.7067 301.993 58.66L300.54 58.46C300.06 58.3933 299.613 57.94 299.54 57.46L299.34 56.0067C299.293 55.6867 299.447 55.24 299.667 55.0133L302.8 51.88C302.267 50.1467 302.68 48.18 304.053 46.8133C306.02 44.8467 309.213 44.8467 311.187 46.8133C313.16 48.78 313.16 51.9867 311.193 53.9533Z" fill="white"/>
<path d="M302.593 55.66L304.127 57.1933" stroke="#7065F0" stroke-width="2" stroke-miterlimit="10" stroke-linecap="round" stroke-linejoin="round"/>
<path d="M307.667 51.3333C308.219 51.3333 308.667 50.8856 308.667 50.3333C308.667 49.781 308.219 49.3333 307.667 49.3333C307.114 49.3333 306.667 49.781 306.667 50.3333C306.667 50.8856 307.114 51.3333 307.667 51.3333Z" fill="#7065F0" stroke="#7065F0" stroke-width="2" stroke-linecap="round" stroke-linejoin="round"/>
<path d="M258.152 116V100.904H254.696V98.12H261.416V116H258.152ZM265.168 116V98.12H268.432V107.432L267.544 107.12L275.152 98.12H279.256L272.128 106.568L272.32 104.264L279.472 116H275.632L270.832 108.128L268.432 110.984V116H265.168ZM286.065 116V111.344H281.409V108.632H286.065V104H288.777V108.632H293.409V111.344H288.777V116H286.065ZM300.582 120.8V102.944H303.534V105.536L303.246 104.888C303.694 104.184 304.302 103.64 305.07 103.256C305.838 102.856 306.726 102.656 307.734 102.656C308.966 102.656 310.078 102.96 311.07 103.568C312.062 104.176 312.846 104.992 313.422 106.016C314.014 107.04 314.31 108.192 314.31 109.472C314.31 110.736 314.022 111.888 313.446 112.928C312.87 113.968 312.086 114.792 311.094 115.4C310.102 115.992 308.974 116.288 307.71 116.288C306.766 116.288 305.894 116.104 305.094 115.736C304.31 115.352 303.686 114.808 303.222 114.104L303.726 113.48V120.8H300.582ZM307.35 113.408C308.07 113.408 308.71 113.24 309.27 112.904C309.83 112.568 310.262 112.104 310.566 111.512C310.886 110.92 311.046 110.24 311.046 109.472C311.046 108.704 310.886 108.032 310.566 107.456C310.262 106.864 309.83 106.4 309.27 106.064C308.71 105.712 308.07 105.536 307.35 105.536C306.662 105.536 306.038 105.704 305.478 106.04C304.934 106.376 304.502 106.848 304.182 107.456C303.878 108.048 303.726 108.72 303.726 109.472C303.726 110.24 303.878 110.92 304.182 111.512C304.502 112.104 304.934 112.568 305.478 112.904C306.038 113.24 306.662 113.408 307.35 113.408ZM316.467 116V102.944H319.419V105.848L319.179 105.416C319.483 104.44 319.955 103.76 320.595 103.376C321.251 102.992 322.035 102.8 322.947 102.8H323.715V105.584H322.587C321.691 105.584 320.971 105.864 320.427 106.424C319.883 106.968 319.611 107.736 319.611 108.728V116H316.467ZM331.588 116.288C330.308 116.288 329.14 115.992 328.084 115.4C327.044 114.808 326.212 114 325.588 112.976C324.98 111.952 324.676 110.784 324.676 109.472C324.676 108.16 324.98 106.992 325.588 105.968C326.212 104.944 327.044 104.136 328.084 103.544C329.124 102.952 330.292 102.656 331.588 102.656C332.868 102.656 334.028 102.952 335.068 103.544C336.108 104.136 336.932 104.944 337.54 105.968C338.164 106.976 338.476 108.144 338.476 109.472C338.476 110.784 338.164 111.952 337.54 112.976C336.916 114 336.084 114.808 335.044 115.4C334.004 115.992 332.852 116.288 331.588 116.288ZM331.588 113.408C332.292 113.408 332.908 113.24 333.436 112.904C333.98 112.568 334.404 112.104 334.708 111.512C335.028 110.904 335.188 110.224 335.188 109.472C335.188 108.704 335.028 108.032 334.708 107.456C334.404 106.864 333.98 106.4 333.436 106.064C332.908 105.712 332.292 105.536 331.588 105.536C330.868 105.536 330.236 105.712 329.692 106.064C329.148 106.4 328.716 106.864 328.396 107.456C328.092 108.032 327.94 108.704 327.94 109.472C327.94 110.224 328.092 110.904 328.396 111.512C328.716 112.104 329.148 112.568 329.692 112.904C330.236 113.24 330.868 113.408 331.588 113.408ZM346.692 116.288C345.428 116.288 344.3 115.992 343.308 115.4C342.316 114.792 341.532 113.968 340.956 112.928C340.38 111.888 340.092 110.736 340.092 109.472C340.092 108.192 340.38 107.04 340.956 106.016C341.532 104.992 342.316 104.176 343.308 103.568C344.316 102.96 345.436 102.656 346.668 102.656C347.66 102.656 348.54 102.856 349.308 103.256C350.092 103.64 350.708 104.184 351.156 104.888L350.676 105.536V97.832H353.82V116H350.844V113.48L351.18 114.104C350.732 114.808 350.108 115.352 349.308 115.736C348.508 116.104 347.636 116.288 346.692 116.288ZM347.028 113.408C347.748 113.408 348.38 113.24 348.924 112.904C349.468 112.568 349.892 112.104 350.196 111.512C350.516 110.92 350.676 110.24 350.676 109.472C350.676 108.72 350.516 108.048 350.196 107.456C349.892 106.848 349.468 106.376 348.924 106.04C348.38 105.704 347.748 105.536 347.028 105.536C346.324 105.536 345.692 105.712 345.132 106.064C344.572 106.4 344.132 106.864 343.812 107.456C343.508 108.032 343.356 108.704 343.356 109.472C343.356 110.24 343.508 110.92 343.812 111.512C344.132 112.104 344.572 112.568 345.132 112.904C345.692 113.24 346.324 113.408 347.028 113.408ZM361.161 116.288C360.153 116.288 359.273 116.064 358.521 115.616C357.785 115.168 357.217 114.544 356.817 113.744C356.433 112.944 356.241 112.008 356.241 110.936V102.944H359.385V110.672C359.385 111.216 359.489 111.696 359.697 112.112C359.921 112.512 360.233 112.832 360.633 113.072C361.049 113.296 361.513 113.408 362.025 113.408C362.537 113.408 362.993 113.296 363.393 113.072C363.793 112.832 364.105 112.504 364.329 112.088C364.553 111.672 364.665 111.176 364.665 110.6V102.944H367.809V116H364.833V113.432L365.097 113.888C364.793 114.688 364.289 115.288 363.585 115.688C362.897 116.088 362.089 116.288 361.161 116.288ZM376.779 116.288C375.483 116.288 374.315 115.992 373.275 115.4C372.251 114.792 371.443 113.976 370.851 112.952C370.259 111.912 369.963 110.744 369.963 109.448C369.963 108.152 370.259 106.992 370.851 105.968C371.443 104.944 372.251 104.136 373.275 103.544C374.315 102.952 375.483 102.656 376.779 102.656C377.707 102.656 378.571 102.824 379.371 103.16C380.171 103.48 380.859 103.928 381.435 104.504C382.027 105.064 382.451 105.736 382.707 106.52L379.947 107.72C379.707 107.064 379.299 106.536 378.723 106.136C378.163 105.736 377.515 105.536 376.779 105.536C376.091 105.536 375.475 105.704 374.931 106.04C374.403 106.376 373.987 106.84 373.683 107.432C373.379 108.024 373.227 108.704 373.227 109.472C373.227 110.24 373.379 110.92 373.683 111.512C373.987 112.104 374.403 112.568 374.931 112.904C375.475 113.24 376.091 113.408 376.779 113.408C377.531 113.408 378.187 113.208 378.747 112.808C379.307 112.408 379.707 111.872 379.947 111.2L382.707 112.448C382.451 113.184 382.035 113.848 381.459 114.44C380.883 115.016 380.195 115.472 379.395 115.808C378.595 116.128 377.723 116.288 376.779 116.288ZM390.805 116.144C389.333 116.144 388.189 115.744 387.373 114.944C386.573 114.128 386.173 112.984 386.173 111.512V105.752H383.917V102.944H384.157C384.797 102.944 385.293 102.776 385.645 102.44C385.997 102.104 386.173 101.616 386.173 100.976V99.968H389.317V102.944H392.317V105.752H389.317V111.344C389.317 111.776 389.389 112.144 389.533 112.448C389.693 112.752 389.933 112.984 390.253 113.144C390.589 113.304 391.013 113.384 391.525 113.384C391.637 113.384 391.765 113.376 391.909 113.36C392.069 113.344 392.221 113.328 392.365 113.312V116C392.141 116.032 391.885 116.064 391.597 116.096C391.309 116.128 391.045 116.144 390.805 116.144ZM399.495 116.288C398.103 116.288 396.887 115.96 395.847 115.304C394.823 114.632 394.119 113.728 393.735 112.592L396.087 111.464C396.423 112.2 396.887 112.776 397.479 113.192C398.087 113.608 398.759 113.816 399.495 113.816C400.071 113.816 400.527 113.688 400.863 113.432C401.199 113.176 401.367 112.84 401.367 112.424C401.367 112.168 401.295 111.96 401.151 111.8C401.023 111.624 400.839 111.48 400.599 111.368C400.375 111.24 400.127 111.136 399.855 111.056L397.719 110.456C396.615 110.136 395.775 109.648 395.199 108.992C394.639 108.336 394.359 107.56 394.359 106.664C394.359 105.864 394.559 105.168 394.959 104.576C395.375 103.968 395.943 103.496 396.663 103.16C397.399 102.824 398.239 102.656 399.183 102.656C400.415 102.656 401.503 102.952 402.447 103.544C403.391 104.136 404.063 104.968 404.463 106.04L402.063 107.168C401.839 106.576 401.463 106.104 400.935 105.752C400.407 105.4 399.815 105.224 399.159 105.224C398.631 105.224 398.215 105.344 397.911 105.584C397.607 105.824 397.455 106.136 397.455 106.52C397.455 106.76 397.519 106.968 397.647 107.144C397.775 107.32 397.951 107.464 398.175 107.576C398.415 107.688 398.687 107.792 398.991 107.888L401.079 108.512C402.151 108.832 402.975 109.312 403.551 109.952C404.143 110.592 404.439 111.376 404.439 112.304C404.439 113.088 404.231 113.784 403.815 114.392C403.399 114.984 402.823 115.448 402.087 115.784C401.351 116.12 400.487 116.288 399.495 116.288Z" fill="#7065F0"/>
<path d="M255.152 147V138.376H256.608V139.96L256.448 139.736C256.651 139.245 256.96 138.883 257.376 138.648C257.792 138.403 258.299 138.28 258.896 138.28H259.424V139.688H258.672C258.064 139.688 257.573 139.88 257.2 140.264C256.827 140.637 256.64 141.171 256.64 141.864V147H255.152ZM264.714 147.192C263.882 147.192 263.14 146.995 262.49 146.6C261.839 146.205 261.327 145.667 260.954 144.984C260.58 144.291 260.394 143.517 260.394 142.664C260.394 141.8 260.575 141.032 260.938 140.36C261.311 139.688 261.812 139.16 262.442 138.776C263.082 138.381 263.796 138.184 264.586 138.184C265.226 138.184 265.791 138.301 266.282 138.536C266.783 138.76 267.204 139.069 267.546 139.464C267.898 139.848 268.164 140.291 268.346 140.792C268.538 141.283 268.634 141.795 268.634 142.328C268.634 142.445 268.623 142.579 268.602 142.728C268.591 142.867 268.575 143 268.554 143.128H261.482V141.848H267.69L266.986 142.424C267.082 141.869 267.028 141.373 266.826 140.936C266.623 140.499 266.324 140.152 265.93 139.896C265.535 139.64 265.087 139.512 264.586 139.512C264.084 139.512 263.626 139.64 263.21 139.896C262.794 140.152 262.468 140.52 262.234 141C262.01 141.469 261.919 142.029 261.962 142.68C261.919 143.309 262.015 143.864 262.25 144.344C262.495 144.813 262.836 145.181 263.274 145.448C263.722 145.704 264.207 145.832 264.73 145.832C265.306 145.832 265.791 145.699 266.186 145.432C266.58 145.165 266.9 144.824 267.146 144.408L268.394 145.048C268.223 145.443 267.956 145.805 267.594 146.136C267.242 146.456 266.82 146.712 266.33 146.904C265.85 147.096 265.311 147.192 264.714 147.192ZM272.993 147.192C272.427 147.192 271.926 147.091 271.489 146.888C271.062 146.675 270.726 146.387 270.481 146.024C270.235 145.651 270.113 145.224 270.113 144.744C270.113 144.285 270.209 143.875 270.401 143.512C270.603 143.139 270.913 142.824 271.329 142.568C271.755 142.312 272.289 142.131 272.929 142.024L276.129 141.496V142.744L273.265 143.224C272.71 143.32 272.305 143.496 272.049 143.752C271.803 144.008 271.681 144.323 271.681 144.696C271.681 145.048 271.819 145.341 272.097 145.576C272.385 145.811 272.742 145.928 273.169 145.928C273.713 145.928 274.182 145.816 274.577 145.592C274.982 145.357 275.297 145.043 275.521 144.648C275.755 144.253 275.873 143.816 275.873 143.336V141.144C275.873 140.675 275.697 140.296 275.345 140.008C275.003 139.709 274.55 139.56 273.985 139.56C273.494 139.56 273.057 139.688 272.673 139.944C272.299 140.189 272.022 140.52 271.841 140.936L270.545 140.264C270.705 139.869 270.961 139.517 271.312 139.208C271.665 138.888 272.075 138.637 272.545 138.456C273.014 138.275 273.505 138.184 274.016 138.184C274.678 138.184 275.259 138.312 275.761 138.568C276.262 138.813 276.651 139.16 276.929 139.608C277.217 140.045 277.361 140.557 277.361 141.144V147H275.905V145.368L276.177 145.464C275.995 145.805 275.75 146.104 275.441 146.36C275.131 146.616 274.769 146.819 274.353 146.968C273.937 147.117 273.483 147.192 272.993 147.192ZM283.588 147.192C282.777 147.192 282.046 146.995 281.396 146.6C280.756 146.205 280.249 145.667 279.876 144.984C279.502 144.301 279.316 143.539 279.316 142.696C279.316 141.832 279.502 141.064 279.876 140.392C280.249 139.709 280.756 139.171 281.396 138.776C282.046 138.381 282.777 138.184 283.588 138.184C284.302 138.184 284.937 138.339 285.492 138.648C286.046 138.947 286.484 139.352 286.804 139.864L286.564 140.232V134.888H288.068V147H286.612V145.16L286.804 145.416C286.505 145.981 286.068 146.419 285.492 146.728C284.926 147.037 284.292 147.192 283.588 147.192ZM283.716 145.752C284.26 145.752 284.745 145.619 285.172 145.352C285.598 145.085 285.934 144.723 286.18 144.264C286.436 143.795 286.564 143.272 286.564 142.696C286.564 142.109 286.436 141.587 286.18 141.128C285.934 140.659 285.598 140.291 285.172 140.024C284.745 139.757 284.26 139.624 283.716 139.624C283.182 139.624 282.697 139.763 282.26 140.04C281.833 140.307 281.497 140.669 281.252 141.128C281.006 141.576 280.884 142.099 280.884 142.696C280.884 143.272 281.006 143.795 281.252 144.264C281.497 144.723 281.833 145.085 282.26 145.352C282.686 145.619 283.172 145.752 283.716 145.752ZM290.835 150.52C290.643 150.52 290.451 150.504 290.259 150.472C290.067 150.44 289.885 150.387 289.715 150.312V148.984C289.832 149.005 289.976 149.027 290.147 149.048C290.328 149.08 290.504 149.096 290.675 149.096C291.176 149.096 291.555 148.984 291.811 148.76C292.077 148.547 292.328 148.173 292.563 147.64L293.107 146.344L293.075 147.64L289.395 138.376H291.011L293.875 145.736H293.395L296.243 138.376H297.891L294.003 148.024C293.821 148.483 293.587 148.899 293.299 149.272C293.021 149.656 292.68 149.96 292.275 150.184C291.869 150.408 291.389 150.52 290.835 150.52ZM302.892 147V139.8H301.244V138.376H302.892V137.768C302.892 137.149 303.025 136.627 303.292 136.2C303.569 135.773 303.932 135.448 304.38 135.224C304.839 135 305.345 134.888 305.9 134.888C306.017 134.888 306.145 134.899 306.284 134.92C306.433 134.931 306.556 134.947 306.652 134.968V136.296C306.567 136.275 306.465 136.264 306.348 136.264C306.231 136.253 306.14 136.248 306.076 136.248C305.585 136.248 305.18 136.365 304.86 136.6C304.551 136.835 304.396 137.224 304.396 137.768V138.376H306.444V139.8H304.396V147H302.892ZM312.029 147.192C311.197 147.192 310.445 147 309.773 146.616C309.101 146.221 308.568 145.683 308.173 145C307.779 144.317 307.581 143.544 307.581 142.68C307.581 141.816 307.773 141.048 308.157 140.376C308.552 139.704 309.085 139.171 309.757 138.776C310.429 138.381 311.187 138.184 312.029 138.184C312.861 138.184 313.613 138.381 314.285 138.776C314.957 139.16 315.485 139.688 315.869 140.36C316.264 141.032 316.461 141.805 316.461 142.68C316.461 143.555 316.259 144.333 315.853 145.016C315.448 145.688 314.909 146.221 314.237 146.616C313.576 147 312.84 147.192 312.029 147.192ZM312.029 145.752C312.563 145.752 313.043 145.619 313.469 145.352C313.907 145.085 314.248 144.717 314.493 144.248C314.749 143.779 314.877 143.256 314.877 142.68C314.877 142.093 314.749 141.576 314.493 141.128C314.248 140.669 313.907 140.307 313.469 140.04C313.043 139.763 312.563 139.624 312.029 139.624C311.485 139.624 310.995 139.763 310.557 140.04C310.131 140.307 309.789 140.669 309.533 141.128C309.277 141.576 309.149 142.093 309.149 142.68C309.149 143.256 309.277 143.779 309.533 144.248C309.789 144.717 310.131 145.085 310.557 145.352C310.995 145.619 311.485 145.752 312.029 145.752ZM318.402 147V138.376H319.858V139.96L319.698 139.736C319.901 139.245 320.21 138.883 320.626 138.648C321.042 138.403 321.549 138.28 322.146 138.28H322.674V139.688H321.922C321.314 139.688 320.823 139.88 320.45 140.264C320.077 140.637 319.89 141.171 319.89 141.864V147H318.402ZM327.225 150.52C327.033 150.52 326.841 150.504 326.649 150.472C326.457 150.44 326.276 150.387 326.105 150.312V148.984C326.223 149.005 326.367 149.027 326.537 149.048C326.719 149.08 326.895 149.096 327.065 149.096C327.567 149.096 327.945 148.984 328.201 148.76C328.468 148.547 328.719 148.173 328.953 147.64L329.497 146.344L329.465 147.64L325.785 138.376H327.401L330.265 145.736H329.785L332.633 138.376H334.281L330.393 148.024C330.212 148.483 329.977 148.899 329.689 149.272C329.412 149.656 329.071 149.96 328.665 150.184C328.26 150.408 327.78 150.52 327.225 150.52ZM339.545 147.192C338.713 147.192 337.961 147 337.289 146.616C336.617 146.221 336.084 145.683 335.689 145C335.294 144.317 335.097 143.544 335.097 142.68C335.097 141.816 335.289 141.048 335.673 140.376C336.068 139.704 336.601 139.171 337.273 138.776C337.945 138.381 338.702 138.184 339.545 138.184C340.377 138.184 341.129 138.381 341.801 138.776C342.473 139.16 343.001 139.688 343.385 140.36C343.78 141.032 343.977 141.805 343.977 142.68C343.977 143.555 343.774 144.333 343.369 145.016C342.964 145.688 342.425 146.221 341.753 146.616C341.092 147 340.356 147.192 339.545 147.192ZM339.545 145.752C340.078 145.752 340.558 145.619 340.985 145.352C341.422 145.085 341.764 144.717 342.009 144.248C342.265 143.779 342.393 143.256 342.393 142.68C342.393 142.093 342.265 141.576 342.009 141.128C341.764 140.669 341.422 140.307 340.985 140.04C340.558 139.763 340.078 139.624 339.545 139.624C339.001 139.624 338.51 139.763 338.073 140.04C337.646 140.307 337.305 140.669 337.049 141.128C336.793 141.576 336.665 142.093 336.665 142.68C336.665 143.256 336.793 143.779 337.049 144.248C337.305 144.717 337.646 145.085 338.073 145.352C338.51 145.619 339.001 145.752 339.545 145.752ZM348.974 147.192C348.355 147.192 347.795 147.048 347.294 146.76C346.803 146.472 346.419 146.072 346.142 145.56C345.875 145.037 345.742 144.44 345.742 143.768V138.376H347.23V143.608C347.23 144.035 347.315 144.408 347.486 144.728C347.667 145.048 347.912 145.299 348.222 145.48C348.542 145.661 348.904 145.752 349.31 145.752C349.715 145.752 350.072 145.661 350.382 145.48C350.702 145.299 350.947 145.037 351.118 144.696C351.299 144.355 351.39 143.949 351.39 143.48V138.376H352.894V147H351.438V145.32L351.678 145.464C351.475 146.008 351.128 146.435 350.638 146.744C350.158 147.043 349.603 147.192 348.974 147.192ZM355.199 147V138.376H356.655V139.96L356.495 139.736C356.698 139.245 357.007 138.883 357.423 138.648C357.839 138.403 358.346 138.28 358.943 138.28H359.471V139.688H358.719C358.111 139.688 357.62 139.88 357.247 140.264C356.874 140.637 356.687 141.171 356.687 141.864V147H355.199ZM368.022 147.192C367.329 147.192 366.694 147.037 366.118 146.728C365.553 146.419 365.116 145.981 364.806 145.416L365.014 145.16V147H363.558V134.888H365.046V140.232L364.822 139.864C365.142 139.352 365.58 138.947 366.134 138.648C366.689 138.339 367.324 138.184 368.038 138.184C368.849 138.184 369.574 138.381 370.214 138.776C370.865 139.171 371.377 139.709 371.75 140.392C372.124 141.064 372.31 141.832 372.31 142.696C372.31 143.539 372.124 144.301 371.75 144.984C371.377 145.667 370.865 146.205 370.214 146.6C369.574 146.995 368.844 147.192 368.022 147.192ZM367.91 145.752C368.454 145.752 368.94 145.619 369.366 145.352C369.793 145.085 370.124 144.723 370.358 144.264C370.604 143.795 370.726 143.272 370.726 142.696C370.726 142.099 370.604 141.576 370.358 141.128C370.124 140.669 369.793 140.307 369.366 140.04C368.94 139.763 368.454 139.624 367.91 139.624C367.366 139.624 366.876 139.757 366.438 140.024C366.012 140.291 365.67 140.659 365.414 141.128C365.169 141.587 365.046 142.109 365.046 142.696C365.046 143.272 365.169 143.795 365.414 144.264C365.67 144.723 366.012 145.085 366.438 145.352C366.876 145.619 367.366 145.752 367.91 145.752ZM377.317 147.192C376.699 147.192 376.139 147.048 375.637 146.76C375.147 146.472 374.763 146.072 374.485 145.56C374.219 145.037 374.085 144.44 374.085 143.768V138.376H375.573V143.608C375.573 144.035 375.659 144.408 375.829 144.728C376.011 145.048 376.256 145.299 376.565 145.48C376.885 145.661 377.248 145.752 377.653 145.752C378.059 145.752 378.416 145.661 378.725 145.48C379.045 145.299 379.291 145.037 379.461 144.696C379.643 144.355 379.733 143.949 379.733 143.48V138.376H381.237V147H379.781V145.32L380.021 145.464C379.819 146.008 379.472 146.435 378.981 146.744C378.501 147.043 377.947 147.192 377.317 147.192ZM386.631 147.192C385.767 147.192 385.015 146.979 384.375 146.552C383.735 146.125 383.281 145.549 383.015 144.824L384.199 144.248C384.444 144.76 384.78 145.165 385.207 145.464C385.633 145.763 386.108 145.912 386.631 145.912C387.1 145.912 387.489 145.8 387.799 145.576C388.108 145.352 388.263 145.059 388.263 144.696C388.263 144.44 388.188 144.237 388.039 144.088C387.9 143.928 387.729 143.805 387.527 143.72C387.324 143.624 387.137 143.555 386.967 143.512L385.671 143.144C384.892 142.92 384.321 142.6 383.959 142.184C383.607 141.768 383.431 141.283 383.431 140.728C383.431 140.216 383.559 139.773 383.815 139.4C384.081 139.016 384.439 138.717 384.887 138.504C385.345 138.291 385.857 138.184 386.423 138.184C387.18 138.184 387.857 138.376 388.455 138.76C389.063 139.144 389.495 139.683 389.751 140.376L388.535 140.936C388.343 140.488 388.055 140.136 387.671 139.88C387.287 139.613 386.855 139.48 386.375 139.48C385.937 139.48 385.591 139.592 385.335 139.816C385.079 140.029 384.951 140.301 384.951 140.632C384.951 140.877 385.015 141.08 385.143 141.24C385.271 141.389 385.425 141.507 385.607 141.592C385.788 141.667 385.964 141.731 386.135 141.784L387.543 142.2C388.247 142.403 388.791 142.717 389.175 143.144C389.569 143.571 389.767 144.083 389.767 144.68C389.767 145.16 389.633 145.592 389.367 145.976C389.1 146.36 388.732 146.659 388.263 146.872C387.793 147.085 387.249 147.192 386.631 147.192ZM391.715 147V138.376H393.203V147H391.715ZM391.715 137V135.08H393.203V137H391.715ZM395.511 147V138.376H396.967V140.056L396.727 139.912C396.941 139.368 397.282 138.947 397.751 138.648C398.231 138.339 398.791 138.184 399.431 138.184C400.05 138.184 400.599 138.323 401.079 138.6C401.57 138.877 401.954 139.261 402.231 139.752C402.519 140.243 402.663 140.797 402.663 141.416V147H401.159V141.896C401.159 141.416 401.074 141.011 400.903 140.68C400.733 140.349 400.487 140.093 400.167 139.912C399.858 139.72 399.501 139.624 399.095 139.624C398.69 139.624 398.327 139.72 398.007 139.912C397.698 140.093 397.453 140.355 397.271 140.696C397.09 141.027 396.999 141.427 396.999 141.896V147H395.511ZM408.761 147.192C407.929 147.192 407.187 146.995 406.537 146.6C405.886 146.205 405.374 145.667 405.001 144.984C404.627 144.291 404.441 143.517 404.441 142.664C404.441 141.8 404.622 141.032 404.985 140.36C405.358 139.688 405.859 139.16 406.489 138.776C407.129 138.381 407.843 138.184 408.633 138.184C409.273 138.184 409.838 138.301 410.329 138.536C410.83 138.76 411.251 139.069 411.593 139.464C411.945 139.848 412.211 140.291 412.393 140.792C412.585 141.283 412.681 141.795 412.681 142.328C412.681 142.445 412.67 142.579 412.649 142.728C412.638 142.867 412.622 143 412.601 143.128H405.529V141.848H411.737L411.033 142.424C411.129 141.869 411.075 141.373 410.873 140.936C410.67 140.499 410.371 140.152 409.977 139.896C409.582 139.64 409.134 139.512 408.633 139.512C408.131 139.512 407.673 139.64 407.257 139.896C406.841 140.152 406.515 140.52 406.281 141C406.057 141.469 405.966 142.029 406.009 142.68C405.966 143.309 406.062 143.864 406.297 144.344C406.542 144.813 406.883 145.181 407.321 145.448C407.769 145.704 408.254 145.832 408.777 145.832C409.353 145.832 409.838 145.699 410.233 145.432C410.627 145.165 410.947 144.824 411.193 144.408L412.441 145.048C412.27 145.443 412.003 145.805 411.641 146.136C411.289 146.456 410.867 146.712 410.377 146.904C409.897 147.096 409.358 147.192 408.761 147.192ZM417.709 147.192C416.845 147.192 416.093 146.979 415.453 146.552C414.813 146.125 414.359 145.549 414.093 144.824L415.277 144.248C415.522 144.76 415.858 145.165 416.285 145.464C416.711 145.763 417.186 145.912 417.709 145.912C418.178 145.912 418.567 145.8 418.877 145.576C419.186 145.352 419.341 145.059 419.341 144.696C419.341 144.44 419.266 144.237 419.117 144.088C418.978 143.928 418.807 143.805 418.605 143.72C418.402 143.624 418.215 143.555 418.045 143.512L416.749 143.144C415.97 142.92 415.399 142.6 415.037 142.184C414.685 141.768 414.509 141.283 414.509 140.728C414.509 140.216 414.637 139.773 414.893 139.4C415.159 139.016 415.517 138.717 415.965 138.504C416.423 138.291 416.935 138.184 417.501 138.184C418.258 138.184 418.935 138.376 419.533 138.76C420.141 139.144 420.573 139.683 420.829 140.376L419.613 140.936C419.421 140.488 419.133 140.136 418.749 139.88C418.365 139.613 417.933 139.48 417.453 139.48C417.015 139.48 416.669 139.592 416.413 139.816C416.157 140.029 416.029 140.301 416.029 140.632C416.029 140.877 416.093 141.08 416.221 141.24C416.349 141.389 416.503 141.507 416.685 141.592C416.866 141.667 417.042 141.731 417.213 141.784L418.621 142.2C419.325 142.403 419.869 142.717 420.253 143.144C420.647 143.571 420.845 144.083 420.845 144.68C420.845 145.16 420.711 145.592 420.445 145.976C420.178 146.36 419.81 146.659 419.341 146.872C418.871 147.085 418.327 147.192 417.709 147.192ZM425.881 147.192C425.017 147.192 424.265 146.979 423.625 146.552C422.985 146.125 422.531 145.549 422.265 144.824L423.449 144.248C423.694 144.76 424.03 145.165 424.457 145.464C424.883 145.763 425.358 145.912 425.881 145.912C426.35 145.912 426.739 145.8 427.049 145.576C427.358 145.352 427.513 145.059 427.513 144.696C427.513 144.44 427.438 144.237 427.289 144.088C427.15 143.928 426.979 143.805 426.777 143.72C426.574 143.624 426.387 143.555 426.217 143.512L424.921 143.144C424.142 142.92 423.571 142.6 423.209 142.184C422.857 141.768 422.681 141.283 422.681 140.728C422.681 140.216 422.809 139.773 423.065 139.4C423.331 139.016 423.689 138.717 424.137 138.504C424.595 138.291 425.107 138.184 425.673 138.184C426.43 138.184 427.107 138.376 427.705 138.76C428.313 139.144 428.745 139.683 429.001 140.376L427.785 140.936C427.593 140.488 427.305 140.136 426.921 139.88C426.537 139.613 426.105 139.48 425.625 139.48C425.187 139.48 424.841 139.592 424.585 139.816C424.329 140.029 424.201 140.301 424.201 140.632C424.201 140.877 424.265 141.08 424.393 141.24C424.521 141.389 424.675 141.507 424.857 141.592C425.038 141.667 425.214 141.731 425.385 141.784L426.793 142.2C427.497 142.403 428.041 142.717 428.425 143.144C428.819 143.571 429.017 144.083 429.017 144.68C429.017 145.16 428.883 145.592 428.617 145.976C428.35 146.36 427.982 146.659 427.513 146.872C427.043 147.085 426.499 147.192 425.881 147.192ZM431.573 147V145.08H433.125V147H431.573Z" fill="#000929"/>
</svg>
