<svg width="162" height="32" viewBox="0 0 162 32" fill="none" xmlns="http://www.w3.org/2000/svg">
<path d="M38.44 24V9.1H44.72C45.7067 9.1 46.5467 9.27333 47.24 9.62C47.9467 9.95333 48.4867 10.4333 48.86 11.06C49.2467 11.6733 49.44 12.42 49.44 13.3C49.44 13.98 49.2533 14.62 48.88 15.22C48.52 15.8067 47.94 16.2933 47.14 16.68V15.42C47.8733 15.7 48.4533 16.0467 48.88 16.46C49.3067 16.8733 49.6067 17.3333 49.78 17.84C49.9533 18.3467 50.04 18.88 50.04 19.44C50.04 20.8667 49.5667 21.9867 48.62 22.8C47.6867 23.6 46.3867 24 44.72 24H38.44ZM41.16 21.6H45C45.7067 21.6 46.2667 21.4067 46.68 21.02C47.1067 20.62 47.32 20.0933 47.32 19.44C47.32 18.7867 47.1067 18.26 46.68 17.86C46.2667 17.46 45.7067 17.26 45 17.26H41.16V21.6ZM41.16 14.88H44.86C45.42 14.88 45.8667 14.72 46.2 14.4C46.5333 14.0667 46.7 13.64 46.7 13.12C46.7 12.6 46.5333 12.1867 46.2 11.88C45.8667 11.5733 45.42 11.42 44.86 11.42H41.16V14.88ZM59.6081 24.24C58.5148 24.24 57.4948 24.0467 56.5481 23.66C55.6015 23.2733 54.7748 22.7333 54.0681 22.04C53.3615 21.3467 52.8081 20.5333 52.4081 19.6C52.0215 18.6533 51.8281 17.6333 51.8281 16.54C51.8281 15.4333 52.0215 14.4133 52.4081 13.48C52.7948 12.5467 53.3415 11.7333 54.0481 11.04C54.7548 10.3467 55.5815 9.81333 56.5281 9.44C57.4748 9.05333 58.5015 8.86 59.6081 8.86C60.7148 8.86 61.7415 9.05333 62.6881 9.44C63.6348 9.82667 64.4615 10.3667 65.1681 11.06C65.8748 11.74 66.4215 12.5467 66.8081 13.48C67.2081 14.4133 67.4081 15.4333 67.4081 16.54C67.4081 17.6333 67.2081 18.6533 66.8081 19.6C66.4081 20.5333 65.8548 21.3467 65.1481 22.04C64.4415 22.7333 63.6148 23.2733 62.6681 23.66C61.7348 24.0467 60.7148 24.24 59.6081 24.24ZM59.6081 21.76C60.3415 21.76 61.0148 21.6333 61.6281 21.38C62.2415 21.1133 62.7748 20.7467 63.2281 20.28C63.6948 19.8133 64.0481 19.26 64.2881 18.62C64.5415 17.98 64.6681 17.2867 64.6681 16.54C64.6681 15.7933 64.5415 15.1067 64.2881 14.48C64.0481 13.84 63.6948 13.2867 63.2281 12.82C62.7748 12.34 62.2415 11.9733 61.6281 11.72C61.0148 11.4667 60.3415 11.34 59.6081 11.34C58.8881 11.34 58.2215 11.4667 57.6081 11.72C56.9948 11.9733 56.4548 12.34 55.9881 12.82C55.5348 13.2867 55.1815 13.84 54.9281 14.48C54.6748 15.1067 54.5481 15.7933 54.5481 16.54C54.5481 17.2867 54.6748 17.98 54.9281 18.62C55.1815 19.26 55.5348 19.8133 55.9881 20.28C56.4548 20.7467 56.9948 21.1133 57.6081 21.38C58.2215 21.6333 58.8881 21.76 59.6081 21.76ZM75.1467 24.24C74.2001 24.24 73.3201 24.0667 72.5067 23.72C71.7067 23.3733 71.0134 22.8933 70.4267 22.28C69.8534 21.6533 69.4334 20.9267 69.1667 20.1L71.4267 19.12C71.7867 19.9733 72.3067 20.6467 72.9867 21.14C73.6667 21.62 74.4334 21.86 75.2867 21.86C75.7667 21.86 76.1801 21.7867 76.5267 21.64C76.8867 21.48 77.1601 21.2667 77.3467 21C77.5467 20.7333 77.6467 20.4133 77.6467 20.04C77.6467 19.6 77.5134 19.24 77.2467 18.96C76.9934 18.6667 76.6067 18.44 76.0867 18.28L73.2267 17.36C72.0667 17 71.1934 16.46 70.6067 15.74C70.0201 15.02 69.7267 14.1733 69.7267 13.2C69.7267 12.3467 69.9334 11.5933 70.3467 10.94C70.7734 10.2867 71.3601 9.78 72.1067 9.42C72.8667 9.04667 73.7334 8.86 74.7067 8.86C75.6001 8.86 76.4201 9.02 77.1667 9.34C77.9134 9.64667 78.5534 10.08 79.0867 10.64C79.6334 11.1867 80.0401 11.8333 80.3067 12.58L78.0667 13.58C77.7734 12.8333 77.3334 12.26 76.7467 11.86C76.1601 11.4467 75.4801 11.24 74.7067 11.24C74.2534 11.24 73.8534 11.32 73.5067 11.48C73.1601 11.6267 72.8867 11.84 72.6867 12.12C72.5001 12.3867 72.4067 12.7067 72.4067 13.08C72.4067 13.4933 72.5401 13.86 72.8067 14.18C73.0734 14.4867 73.4801 14.7267 74.0267 14.9L76.7667 15.76C77.9534 16.1467 78.8401 16.68 79.4267 17.36C80.0267 18.04 80.3267 18.88 80.3267 19.88C80.3267 20.7333 80.1067 21.4867 79.6667 22.14C79.2267 22.7933 78.6201 23.3067 77.8467 23.68C77.0734 24.0533 76.1734 24.24 75.1467 24.24ZM93.6706 24.24C92.5773 24.24 91.5573 24.0467 90.6106 23.66C89.664 23.2733 88.8373 22.7333 88.1306 22.04C87.424 21.3467 86.8706 20.5333 86.4706 19.6C86.084 18.6533 85.8906 17.6333 85.8906 16.54C85.8906 15.4333 86.084 14.4133 86.4706 13.48C86.8573 12.5467 87.404 11.7333 88.1106 11.04C88.8173 10.3467 89.644 9.81333 90.5906 9.44C91.5373 9.05333 92.564 8.86 93.6706 8.86C94.7773 8.86 95.804 9.05333 96.7506 9.44C97.6973 9.82667 98.524 10.3667 99.2306 11.06C99.9373 11.74 100.484 12.5467 100.871 13.48C101.271 14.4133 101.471 15.4333 101.471 16.54C101.471 17.6333 101.271 18.6533 100.871 19.6C100.471 20.5333 99.9173 21.3467 99.2106 22.04C98.504 22.7333 97.6773 23.2733 96.7306 23.66C95.7973 24.0467 94.7773 24.24 93.6706 24.24ZM93.6706 21.76C94.404 21.76 95.0773 21.6333 95.6906 21.38C96.304 21.1133 96.8373 20.7467 97.2906 20.28C97.7573 19.8133 98.1106 19.26 98.3506 18.62C98.604 17.98 98.7306 17.2867 98.7306 16.54C98.7306 15.7933 98.604 15.1067 98.3506 14.48C98.1106 13.84 97.7573 13.2867 97.2906 12.82C96.8373 12.34 96.304 11.9733 95.6906 11.72C95.0773 11.4667 94.404 11.34 93.6706 11.34C92.9506 11.34 92.284 11.4667 91.6706 11.72C91.0573 11.9733 90.5173 12.34 90.0506 12.82C89.5973 13.2867 89.244 13.84 88.9906 14.48C88.7373 15.1067 88.6106 15.7933 88.6106 16.54C88.6106 17.2867 88.7373 17.98 88.9906 18.62C89.244 19.26 89.5973 19.8133 90.0506 20.28C90.5173 20.7467 91.0573 21.1133 91.6706 21.38C92.284 21.6333 92.9506 21.76 93.6706 21.76ZM103.889 24V9.1H113.829V11.5H106.609V15.62H112.929V18.02H106.609V24H103.889ZM115.608 24V9.1H125.548V11.5H118.328V15.62H124.648V18.02H118.328V24H115.608ZM127.327 24V9.1H130.047V24H127.327ZM139.913 24.24C138.846 24.24 137.859 24.0467 136.953 23.66C136.059 23.2733 135.273 22.7333 134.593 22.04C133.926 21.3467 133.406 20.5333 133.033 19.6C132.659 18.6667 132.473 17.6467 132.473 16.54C132.473 15.4333 132.653 14.4133 133.013 13.48C133.386 12.5333 133.906 11.72 134.573 11.04C135.253 10.3467 136.046 9.81333 136.953 9.44C137.859 9.05333 138.846 8.86 139.913 8.86C140.979 8.86 141.933 9.04 142.773 9.4C143.626 9.76 144.346 10.24 144.933 10.84C145.519 11.4267 145.939 12.0733 146.193 12.78L143.753 13.92C143.473 13.1733 142.999 12.56 142.333 12.08C141.666 11.5867 140.859 11.34 139.913 11.34C138.979 11.34 138.153 11.56 137.433 12C136.726 12.44 136.173 13.0467 135.773 13.82C135.386 14.5933 135.193 15.5 135.193 16.54C135.193 17.58 135.386 18.4933 135.773 19.28C136.173 20.0533 136.726 20.66 137.433 21.1C138.153 21.54 138.979 21.76 139.913 21.76C140.859 21.76 141.666 21.52 142.333 21.04C142.999 20.5467 143.473 19.9267 143.753 19.18L146.193 20.32C145.939 21.0267 145.519 21.68 144.933 22.28C144.346 22.8667 143.626 23.34 142.773 23.7C141.933 24.06 140.979 24.24 139.913 24.24ZM148.401 24V9.1H158.301V11.5H151.121V15.32H157.901V17.72H151.121V21.6H158.301V24H148.401Z" fill="#100A55"/>
<g clip-path="url(#clip0_5_1896)">
<path d="M4.53406 3H19.3022L19.8528 3.0391L20.2264 3.09774L20.7967 3.21504L21.2686 3.35188L21.7602 3.52782L22.5272 3.89925L22.8221 4.07519L23.1958 4.32932L23.4514 4.52481L23.6677 4.70075L23.884 4.89624L24.0413 5.03308L24.179 5.16992L24.3166 5.32632L24.5133 5.54135L24.7099 5.79549L24.9656 6.14737L25.2212 6.57744L25.4375 6.98797L25.6735 7.55489L25.8112 7.98496L25.9291 8.45414L26.0275 9.06015L26.0668 9.47068V10.409L26.0078 10.9368L25.9095 11.5038L25.7718 12.0511L25.5752 12.6376L25.4179 12.9895L25.2212 13.3414L24.8673 13.9278L24.8083 14.006L24.8476 14.0842L25.2802 14.397L25.5555 14.612L25.8505 14.8662L26.0865 15.0812V15.1203H26.1258L26.2634 15.2767L26.4994 15.5308L26.6764 15.7459L26.9517 16.0977L27.2073 16.4887L27.4237 16.8406L27.6596 17.2707L27.9153 17.8571L28.1512 18.5609L28.2889 19.0887L28.4069 19.7729L28.4659 20.3789V21.3173L28.4069 21.9624L28.2692 22.7053L28.1119 23.2917L27.9743 23.6827L27.7383 24.2496L27.581 24.5624L27.3647 24.9729L27.0697 25.4421L26.8337 25.7549L26.6174 26.0286L26.1848 26.4977L26.0865 26.5955L26.0078 26.6932L25.8505 26.8301L25.5752 27.0842L25.2999 27.2992L24.9852 27.5338L24.5919 27.788L24.297 27.9639L23.8054 28.218L23.2548 28.4526L22.8615 28.5895L22.4682 28.7068L22.0945 28.8045L21.4063 28.9218L20.8753 28.9805L4.65205 29L4.59305 28.9609L4.65205 28.5113L4.77003 27.8662L4.92735 27.2406L5.08467 26.7323L5.26165 26.2436L5.47796 25.7353L5.83192 25.0316L6.14655 24.5038L6.38253 24.1519L6.59884 23.8391L6.79549 23.585L6.97247 23.3699L7.14945 23.1744L7.2871 23.018L7.52308 22.7639L7.77872 22.5098L7.93603 22.3729L8.19167 22.1383L8.66362 21.7865L9.07658 21.5128L9.45021 21.2977L9.74518 21.1414L10.2368 20.9263L10.7677 20.7504L11.2397 20.6331L11.5936 20.5744L11.7903 20.5549H12.9898L13.3831 20.594L13.8747 20.6917L14.327 20.8286L14.681 20.9459L15.0743 21.1218L15.6052 21.3955L15.9395 21.6105L16.2345 21.8256L16.4901 22.0406L16.7261 22.2556L17.0211 22.5489L17.1981 22.7639L17.4537 23.0962L17.6307 23.3699L17.8273 23.7023L18.0436 24.1519L18.1223 24.3669L18.201 24.406L18.3583 24.3278L18.7122 24.2105L18.6139 23.8782L18.4566 23.3308L18.3386 22.7639L18.2796 22.3338L18.2403 21.7474V21.3955L18.2796 20.7504L18.3583 20.2226L18.4763 19.6752L18.6926 18.991L18.8499 18.6L19.0859 18.1113L19.2825 17.7594L19.5185 17.4075L19.7545 17.0752L20.0101 16.7624L20.4427 16.2932L20.6 16.1564L20.7377 16.0195L20.8753 15.9023H20.9147L20.9343 15.8436L21.19 15.6481L21.4849 15.4331L21.8389 15.218L22.1929 15.0226L22.6648 14.788L22.9991 14.6511L22.8221 14.1233L22.8025 14.0842L22.0159 14.3188L21.5046 14.4361L20.9737 14.5143L20.4427 14.5534H19.9314L19.5185 14.5338L18.9089 14.4556L18.4173 14.3579L17.847 14.2015L17.3554 14.0256L17.0014 13.8692L16.6868 13.7128L16.3132 13.5173L15.9789 13.3023L15.7625 13.1459L15.4479 12.9113L15.1726 12.6767L15.0546 12.5789L14.7007 12.2271L14.563 12.0707L14.3467 11.8165L14.0517 11.4256L13.8551 11.1323L13.6388 10.7609L13.4421 10.3895L13.1865 9.82256L13.0095 9.8812L12.6359 10.018L12.6752 10.2331L12.7932 10.585L12.9505 11.2105L13.0292 11.7188L13.0882 12.403V13.0286L13.0292 13.6346L12.9308 14.2211L12.7735 14.8466L12.6359 15.218L12.4786 15.5308L12.2819 15.8241L12.0656 16.0782L11.8886 16.2737L11.6133 16.4887L11.4167 16.6256L11.0824 16.8015L10.7284 16.9383L10.2761 17.0556L9.90249 17.1143H9.19457L8.72262 17.0556L8.27033 16.9579L7.73939 16.782L7.3461 16.606L7.0118 16.4301L6.71683 16.2346L6.42186 16.0195L6.12689 15.7654L5.87125 15.5113L5.7336 15.3549L5.51729 15.0812L5.34031 14.8271L5.14366 14.4947L4.98634 14.182L4.82903 13.8105L4.71104 13.4195L4.63238 13.0872L4.57339 12.7353L4.55372 12.5008L4.53406 3Z" fill="#7065F0" stroke="#7065F0"/>
</g>
<defs>
<clipPath id="clip0_5_1896">
<rect width="32" height="32" fill="white" transform="translate(0.5 3.05176e-05)"/>
</clipPath>
</defs>
</svg>
