<svg width="366" height="246" viewBox="0 0 366 246" fill="none" xmlns="http://www.w3.org/2000/svg">
<path d="M186.13 164.96C186.13 164.96 170.25 143.2 178 138.1C186.06 132.78 189.85 148.88 191.55 156.79C195.19 173.66 194.16 177.24 191.72 173.53L186.13 164.96Z" fill="#5245ED"/>
<path d="M180.15 178.33C180.15 178.33 158.06 162.92 163.73 155.57C169.63 147.92 178.44 161.92 182.62 168.84C191.54 183.62 191.73 187.34 188.22 184.63L180.15 178.33Z" fill="#5245ED"/>
<path d="M179.7 196.26C179.7 196.26 160.58 187.67 163.85 181.26C167.25 174.56 176.02 183.98 180.22 188.67C189.22 198.67 189.86 201.5 186.78 199.93L179.7 196.26Z" fill="#5245ED"/>
<path d="M178.56 214.16C178.56 214.16 159.44 205.58 162.71 199.16C166.12 192.46 174.88 201.88 179.08 206.57C188.08 216.57 188.73 219.4 185.65 217.83L178.56 214.16Z" fill="#5245ED"/>
<path d="M201.02 174.05C201.02 174.05 222.02 157.18 227.48 164.69C233.16 172.5 217.25 177.02 209.48 179.09C192.79 183.5 189.16 182.63 192.76 180.02L201.02 174.05Z" fill="#5245ED"/>
<path d="M200.35 188.13C200.35 188.13 224.29 175.78 228.15 184.22C232.15 193 215.67 194.27 207.59 194.74C190.36 195.74 186.98 194.18 191.02 192.33L200.35 188.13Z" fill="#5245ED"/>
<path d="M197.46 203.93C197.46 203.93 218.02 194.03 221.02 201.26C224.21 208.78 210.24 209.47 203.4 209.69C188.8 210.13 185.98 208.69 189.4 207.27L197.46 203.93Z" fill="#5245ED"/>
<path d="M196.48 216.69C196.48 216.69 215.84 204.69 219.66 211.53C223.66 218.67 209.81 220.84 203.03 221.78C188.56 223.78 185.6 222.68 188.89 220.85L196.48 216.69Z" fill="#5245ED"/>
<path d="M198.29 152.68C198.29 152.68 201.93 121.09 213.85 124.32C226.25 127.68 215.85 143.67 210.63 151.38C199.44 167.82 195.33 169.64 196.21 164.5L198.29 152.68Z" fill="#5245ED"/>
<path opacity="0.5" d="M186.13 164.96C186.13 164.96 170.25 143.2 178 138.1C186.06 132.78 189.85 148.88 191.55 156.79C195.19 173.66 194.16 177.24 191.72 173.53L186.13 164.96Z" fill="white"/>
<path opacity="0.5" d="M180.15 178.33C180.15 178.33 158.06 162.92 163.73 155.57C169.63 147.92 178.44 161.92 182.62 168.84C191.54 183.62 191.73 187.34 188.22 184.63L180.15 178.33Z" fill="white"/>
<path opacity="0.5" d="M179.7 196.26C179.7 196.26 160.58 187.67 163.85 181.26C167.25 174.56 176.02 183.98 180.22 188.67C189.22 198.67 189.86 201.5 186.78 199.93L179.7 196.26Z" fill="white"/>
<path opacity="0.5" d="M178.56 214.16C178.56 214.16 159.44 205.58 162.71 199.16C166.12 192.46 174.88 201.88 179.08 206.57C188.08 216.57 188.73 219.4 185.65 217.83L178.56 214.16Z" fill="white"/>
<path opacity="0.5" d="M201.02 174.05C201.02 174.05 222.02 157.18 227.48 164.69C233.16 172.5 217.25 177.02 209.48 179.09C192.79 183.5 189.16 182.63 192.76 180.02L201.02 174.05Z" fill="white"/>
<path opacity="0.5" d="M200.35 188.13C200.35 188.13 224.29 175.78 228.15 184.22C232.15 193 215.67 194.27 207.59 194.74C190.36 195.74 186.98 194.18 191.02 192.33L200.35 188.13Z" fill="white"/>
<path opacity="0.5" d="M197.46 203.93C197.46 203.93 218.02 194.03 221.02 201.26C224.21 208.78 210.24 209.47 203.4 209.69C188.8 210.13 185.98 208.69 189.4 207.27L197.46 203.93Z" fill="white"/>
<path opacity="0.5" d="M196.48 216.69C196.48 216.69 215.84 204.69 219.66 211.53C223.66 218.67 209.81 220.84 203.03 221.78C188.56 223.78 185.6 222.68 188.89 220.85L196.48 216.69Z" fill="white"/>
<path opacity="0.5" d="M198.29 152.68C198.29 152.68 201.93 121.09 213.85 124.32C226.25 127.68 215.85 143.67 210.63 151.38C199.44 167.82 195.33 169.64 196.21 164.5L198.29 152.68Z" fill="white"/>
<path d="M211.42 135.8C211.42 135.8 193.26 169.8 190.42 185.65C187.18 203.8 186.65 224.06 188.89 239.95" stroke="#263238" stroke-width="0.75" stroke-linecap="round" stroke-linejoin="round"/>
<path d="M193.31 175.14L184.41 147.89" stroke="#263238" stroke-width="0.75" stroke-linecap="round" stroke-linejoin="round"/>
<path d="M190.44 185.65L173.69 164.59" stroke="#263238" stroke-width="0.75" stroke-linecap="round" stroke-linejoin="round"/>
<path d="M191.51 181.82L215.76 171.63" stroke="#263238" stroke-width="0.75" stroke-linecap="round" stroke-linejoin="round"/>
<path d="M188.34 199.91L170.11 185.93" stroke="#263238" stroke-width="0.75" stroke-linecap="round" stroke-linejoin="round"/>
<path d="M189.31 193.91L208.36 189.95" stroke="#263238" stroke-width="0.75" stroke-linecap="round" stroke-linejoin="round"/>
<path d="M188.39 208.5L203.14 206.16" stroke="#263238" stroke-width="0.75" stroke-linecap="round" stroke-linejoin="round"/>
<path d="M187.15 217.94L177.23 209.06" stroke="#263238" stroke-width="0.75" stroke-linecap="round" stroke-linejoin="round"/>
<path d="M187.35 221.94L204.3 217.68" stroke="#263238" stroke-width="0.75" stroke-linecap="round" stroke-linejoin="round"/>
<path d="M154.16 202.68C154.16 202.68 155.1 184.95 148.98 184.92C142.61 184.92 146.32 195.14 148.23 200.12C152.3 210.75 154.16 212.36 154.17 209.43L154.16 202.68Z" fill="#5245ED"/>
<path d="M162.28 207.91C162.28 207.91 168.93 191.44 163.15 189.43C157.15 187.33 157.32 198.23 157.5 203.56C157.9 214.93 159.14 217.06 160.1 214.29L162.28 207.91Z" fill="#5245ED"/>
<path d="M168.97 217.62C168.97 217.62 176.43 205.99 172.31 203.62C168.02 201.15 166.57 209.51 165.94 213.62C164.6 222.37 165.24 224.17 166.37 222.2L168.97 217.62Z" fill="#5245ED"/>
<path d="M176.02 227.12C176.02 227.12 183.48 215.49 179.36 213.12C175.06 210.64 173.62 219 172.99 223.12C171.65 231.87 172.28 233.67 173.42 231.69L176.02 227.12Z" fill="#5245ED"/>
<path d="M149.24 213.05C149.24 213.05 131.57 211.3 131.24 217.41C130.92 223.77 141.33 220.54 146.39 218.86C157.2 215.28 158.89 213.5 155.96 213.35L149.24 213.05Z" fill="#5245ED"/>
<path d="M154.66 220.6C154.66 220.6 136.99 222.4 137.91 228.45C138.85 234.74 148.41 229.51 153.04 226.86C162.92 221.2 164.22 219.12 161.32 219.56L154.66 220.6Z" fill="#5245ED"/>
<path d="M161.95 228.26C161.95 228.26 147.05 230.19 147.95 235.26C148.9 240.56 156.86 235.91 160.72 233.57C168.94 228.57 169.99 226.76 167.55 227.2L161.95 228.26Z" fill="#5245ED"/>
<path d="M167.08 234.97C167.08 234.97 152.08 235.31 152.43 240.47C152.81 245.84 161.22 242.06 165.3 240.14C174.01 236.03 175.3 234.36 172.78 234.53L167.08 234.97Z" fill="#5245ED"/>
<path d="M143.02 200.26C143.02 200.26 129.63 184.13 124.21 190.26C118.58 196.58 130.06 201.67 135.73 204.04C147.84 209.09 150.73 208.61 148.43 206.09L143.02 200.26Z" fill="#5245ED"/>
<path opacity="0.5" d="M154.16 202.68C154.16 202.68 155.1 184.95 148.98 184.92C142.61 184.92 146.32 195.14 148.23 200.12C152.3 210.75 154.16 212.36 154.17 209.43L154.16 202.68Z" fill="white"/>
<path opacity="0.5" d="M162.28 207.91C162.28 207.91 168.93 191.44 163.15 189.43C157.15 187.33 157.32 198.23 157.5 203.56C157.9 214.93 159.14 217.06 160.1 214.29L162.28 207.91Z" fill="white"/>
<path opacity="0.5" d="M168.97 217.62C168.97 217.62 176.43 205.99 172.31 203.62C168.02 201.15 166.57 209.51 165.94 213.62C164.6 222.37 165.24 224.17 166.37 222.2L168.97 217.62Z" fill="white"/>
<path opacity="0.5" d="M176.02 227.12C176.02 227.12 183.48 215.49 179.36 213.12C175.06 210.64 173.62 219 172.99 223.12C171.65 231.87 172.28 233.67 173.42 231.69L176.02 227.12Z" fill="white"/>
<path opacity="0.5" d="M149.24 213.05C149.24 213.05 131.57 211.3 131.24 217.41C130.92 223.77 141.33 220.54 146.39 218.86C157.2 215.28 158.89 213.5 155.96 213.35L149.24 213.05Z" fill="white"/>
<path opacity="0.5" d="M154.66 220.6C154.66 220.6 136.99 222.4 137.91 228.45C138.85 234.74 148.41 229.51 153.04 226.86C162.92 221.2 164.22 219.12 161.32 219.56L154.66 220.6Z" fill="white"/>
<path opacity="0.5" d="M161.95 228.26C161.95 228.26 147.05 230.19 147.95 235.26C148.9 240.56 156.86 235.91 160.72 233.57C168.94 228.57 169.99 226.76 167.55 227.2L161.95 228.26Z" fill="white"/>
<path opacity="0.5" d="M167.08 234.97C167.08 234.97 152.08 235.31 152.43 240.47C152.81 245.84 161.22 242.06 165.3 240.14C174.01 236.03 175.3 234.36 172.78 234.53L167.08 234.97Z" fill="white"/>
<path opacity="0.5" d="M143.02 200.26C143.02 200.26 129.63 184.13 124.21 190.26C118.58 196.58 130.06 201.67 135.73 204.04C147.84 209.09 150.73 208.61 148.43 206.09L143.02 200.26Z" fill="white"/>
<path d="M129.7 195.69C129.7 195.69 151.99 207.95 159.24 215.69C167.47 224.427 174.346 234.347 179.64 245.12" stroke="#263238" stroke-width="0.75" stroke-linecap="round" stroke-linejoin="round"/>
<path d="M153.87 210.89L148.96 192.64" stroke="#263238" stroke-width="0.75" stroke-linecap="round" stroke-linejoin="round"/>
<path d="M159.24 215.65L160.9 198" stroke="#263238" stroke-width="0.75" stroke-linecap="round" stroke-linejoin="round"/>
<path d="M157.27 213.93L140.21 217.04" stroke="#263238" stroke-width="0.75" stroke-linecap="round" stroke-linejoin="round"/>
<path d="M165.53 222.77L170.57 208.49" stroke="#263238" stroke-width="0.75" stroke-linecap="round" stroke-linejoin="round"/>
<path d="M162.84 219.81L150.9 224.48" stroke="#263238" stroke-width="0.75" stroke-linecap="round" stroke-linejoin="round"/>
<path d="M168.6 227.54L159.61 231.56" stroke="#263238" stroke-width="0.75" stroke-linecap="round" stroke-linejoin="round"/>
<path d="M172.69 232.3L174.96 223.82" stroke="#263238" stroke-width="0.75" stroke-linecap="round" stroke-linejoin="round"/>
<path d="M174.02 234.58L163.13 238.33" stroke="#263238" stroke-width="0.75" stroke-linecap="round" stroke-linejoin="round"/>
<path d="M320.1 31.85L323.44 22.72L321.66 24.72V21.6L317.88 27.39L321.22 6.67999L316.76 18.04L316.32 8.01999L315.65 11.36L314.76 0L313.2 17.37L310.97 11.36L311.42 19.15L305.41 1.34L308.3 23.61L304.07 20.49L306.52 24.5L303.4 22.27L306.96 32.51L319.88 32.74" fill="#5245ED"/>
<path d="M305.82 54.33H319.74L323.49 30.21H302.07L305.82 54.33Z" fill="#263238" stroke="#263238" stroke-linecap="round" stroke-linejoin="round"/>
<path d="M251.84 54.1699H360.33V241.12H251.84V54.1699Z" fill="#263238" stroke="#263238" stroke-linecap="round" stroke-linejoin="round"/>
<path d="M251.84 54.1699H322.12V241.12H251.84V54.1699Z" fill="white" stroke="#263238" stroke-linecap="round" stroke-linejoin="round"/>
<path d="M256.62 60.3098H318.03V105.34H256.62V60.3098Z" fill="white" stroke="#263238" stroke-linecap="round" stroke-linejoin="round"/>
<path d="M275.05 78.73H299.61V86.92H275.05V78.73Z" fill="#263238"/>
<path d="M256.62 112.85H318.03V157.88H256.62V112.85Z" fill="white" stroke="#263238" stroke-linecap="round" stroke-linejoin="round"/>
<path d="M275.05 131.27H299.61V139.46H275.05V131.27Z" fill="#263238"/>
<path d="M256.62 165.39H318.03V210.42H256.62V165.39Z" fill="white" stroke="#263238" stroke-linecap="round" stroke-linejoin="round"/>
<path d="M275.05 183.81H299.61V192H275.05V183.81Z" fill="#263238"/>
<path d="M130.19 108.08C130.19 108.08 130.9 102.38 137.08 92.65C143.26 82.92 137.31 79.83 130.9 72C124.49 64.17 114.53 65.83 109.07 67C103.61 68.17 94.3501 70.56 92.2201 77.92C90.0901 85.28 89.3701 101.42 89.1301 102.85C88.8901 104.28 91.5001 104.74 92.6901 104.51C93.8801 104.28 96.4901 90.98 99.8101 88.13C103.13 85.28 117.81 87.18 121.89 92.13C125.97 97.08 124.73 104.24 124.5 107.33C124.27 110.42 125.68 111.33 127.11 111.6C128.54 111.87 130.19 108.08 130.19 108.08Z" fill="#263238" stroke="#263238" stroke-linecap="round" stroke-linejoin="round"/>
<path d="M109.44 124.52C109.44 124.52 131.44 129.52 138.19 131.52C144.94 133.52 151.19 135.02 149.94 138.02C148.69 141.02 156.69 166.02 156.69 166.02L167.94 193.26L151.94 205.76L139.19 181.01L127.69 237.26H50.4401C50.4401 237.26 52.6901 143.51 56.4401 138.76C60.1901 134.01 89.9401 123.76 97.1901 123.01C101.335 122.517 105.539 123.035 109.44 124.52Z" fill="#5245ED" stroke="#263238" stroke-linecap="round" stroke-linejoin="round"/>
<path d="M73.0201 178.42C76.3455 171.291 79.1723 163.94 81.4801 156.42" stroke="#263238" stroke-linecap="round" stroke-linejoin="round"/>
<path d="M80.2401 176.38C77.6974 179.519 74.0878 181.612 70.1001 182.26" stroke="#263238" stroke-linecap="round" stroke-linejoin="round"/>
<path d="M83.2201 171.26C82.8406 172.309 82.3512 173.314 81.7601 174.26" stroke="#263238" stroke-linecap="round" stroke-linejoin="round"/>
<path d="M143.47 157.74L139.19 181.02L147 157.73" stroke="#263238" stroke-linecap="round" stroke-linejoin="round"/>
<path d="M144.97 149.6L144.07 154.5" stroke="#263238" stroke-linecap="round" stroke-linejoin="round"/>
<path d="M126.87 110.69C126.87 110.69 129.24 104.99 131.38 104.99C133.52 104.99 133.04 108.08 132.09 111.64C131.14 115.2 128.29 119.23 126.16 119.23H124.02L126.87 110.69Z" fill="white" stroke="#263238" stroke-linecap="round" stroke-linejoin="round"/>
<path d="M92.4501 101.19C92.4501 101.19 90.0801 94.3101 88.8901 97.8701C87.7496 101.816 87.6668 105.992 88.6501 109.98C89.6001 113.77 89.8401 115.2 90.7901 114.98C91.7401 114.76 92.4501 101.19 92.4501 101.19Z" fill="white" stroke="#263238" stroke-linecap="round" stroke-linejoin="round"/>
<path d="M115.35 158.91L114.57 159.77L112.76 161.75L108.74 170.48L111.1 225.02L103.31 237.06L96.4701 221.95L106.62 170.25L104.49 160.8L102.37 154.43L103.78 153.25L106.15 157.97L113.23 157.74L116.53 155.14L117.95 158.21L115.35 158.91Z" fill="#263238" stroke="#263238" stroke-linecap="round" stroke-linejoin="round"/>
<path d="M119.6 123.03C119.6 123.03 125.27 129.88 125.74 136.49C126.21 143.1 120.74 163.16 120.74 163.16C120.74 163.16 113.42 157.73 108.74 157.73C104.06 157.73 93.1602 166.94 93.1602 166.94C93.1602 166.94 85.8402 143.33 89.6202 129.4C93.4002 115.47 109.69 111.93 119.6 123.03Z" fill="white" stroke="#263238" stroke-linecap="round" stroke-linejoin="round"/>
<path d="M119.13 125.39C119.13 125.39 117.24 134.13 115.83 139.79C114.42 145.45 110.63 158.68 108.74 157.73C106.85 156.78 98.5901 137.19 98.3501 132.24C98.1101 127.29 114.17 114.26 119.13 125.39Z" fill="#5245ED"/>
<mask id="mask0_32_899" style="mask-type:luminance" maskUnits="userSpaceOnUse" x="98" y="121" width="22" height="37">
<path d="M119.13 125.39C119.13 125.39 117.24 134.13 115.83 139.79C114.42 145.45 110.63 158.68 108.74 157.73C106.85 156.78 98.5901 137.19 98.3501 132.24C98.1101 127.29 114.17 114.26 119.13 125.39Z" fill="white"/>
</mask>
<g mask="url(#mask0_32_899)">
<path opacity="0.5" d="M119.13 125.39C119.13 125.39 117.24 134.13 115.83 139.79C114.42 145.45 110.63 158.68 108.74 157.73C106.85 156.78 98.5901 137.19 98.3501 132.24C98.1101 127.29 114.17 114.26 119.13 125.39Z" fill="white" stroke="#263238" stroke-linecap="round" stroke-linejoin="round"/>
</g>
<path d="M119.13 125.39C119.13 125.39 117.24 134.13 115.83 139.79C114.42 145.45 110.63 158.68 108.74 157.73C106.85 156.78 98.5901 137.19 98.3501 132.24C98.1101 127.29 114.17 114.26 119.13 125.39Z" stroke="#263238" stroke-linecap="round" stroke-linejoin="round"/>
<path d="M125.5 89.4901C125.5 89.4901 128.72 95.1001 128.23 99.4201C127.74 103.74 127.16 112.35 124.81 118.75C122.46 125.15 114.93 131.94 109.3 137.41C103.67 142.88 98.6102 139.35 96.8102 136.75C95.0102 134.15 92.3201 124.62 90.9901 117.31C89.6601 110 92.3802 92.3101 94.8702 87.8201C97.3602 83.3301 113.31 76.3501 125.5 89.4901Z" fill="white"/>
<mask id="mask1_32_899" style="mask-type:luminance" maskUnits="userSpaceOnUse" x="90" y="81" width="39" height="60">
<path d="M125.5 89.4901C125.5 89.4901 128.72 95.1001 128.23 99.4201C127.74 103.74 127.16 112.35 124.81 118.75C122.46 125.15 114.93 131.94 109.3 137.41C103.67 142.88 98.6102 139.35 96.8102 136.75C95.0102 134.15 92.3201 124.62 90.9901 117.31C89.6601 110 92.3802 92.3101 94.8702 87.8201C97.3602 83.3301 113.31 76.3501 125.5 89.4901Z" fill="white"/>
</mask>
<g mask="url(#mask1_32_899)">
<path d="M125.5 89.4901C126.365 91.0812 127.066 92.7566 127.59 94.4901C126.99 94.8001 120.76 97.9901 118.01 97.9901C115.26 97.9901 125.73 99.6001 122.51 103.46C119.29 107.32 103.87 103.78 99.0501 100.24C94.2301 96.7001 93.9001 97.6701 93.9001 97.6701C93.9001 97.6701 91.6501 113.74 93.2601 122.42C94.8701 131.1 97.4401 136.24 101.62 137.53C105.8 138.82 111.75 133.53 115.44 129.53C117.395 127.493 119.56 125.67 121.9 124.09C118.52 128.82 113.41 133.51 109.3 137.5C103.68 142.97 98.6102 139.44 96.8102 136.84C95.0102 134.24 92.3201 124.71 90.9901 117.4C89.6601 110.09 92.3801 92.4001 94.8701 87.9101C97.3601 83.4201 113.31 76.3501 125.5 89.4901Z" fill="#5245ED"/>
<path opacity="0.5" d="M125.5 89.4901C126.365 91.0812 127.066 92.7566 127.59 94.4901C126.99 94.8001 120.76 97.9901 118.01 97.9901C115.26 97.9901 125.73 99.6001 122.51 103.46C119.29 107.32 103.87 103.78 99.0501 100.24C94.2301 96.7001 93.9001 97.6701 93.9001 97.6701C93.9001 97.6701 91.6501 113.74 93.2601 122.42C94.8701 131.1 97.4401 136.24 101.62 137.53C105.8 138.82 111.75 133.53 115.44 129.53C117.395 127.493 119.56 125.67 121.9 124.09C118.52 128.82 113.41 133.51 109.3 137.5C103.68 142.97 98.6102 139.44 96.8102 136.84C95.0102 134.24 92.3201 124.71 90.9901 117.4C89.6601 110.09 92.3801 92.4001 94.8701 87.9101C97.3601 83.4201 113.31 76.3501 125.5 89.4901Z" fill="white"/>
<path d="M113.13 113.39C112.89 114.73 113.24 115.92 113.91 116.04C114.58 116.16 115.32 115.17 115.57 113.83C115.82 112.49 115.46 111.29 114.79 111.17C114.12 111.05 113.37 112.04 113.13 113.39Z" fill="#263238"/>
<path d="M100.92 110.68C100.68 112.02 101.02 113.21 101.7 113.33C102.38 113.45 103.11 112.46 103.36 111.12C103.61 109.78 103.25 108.58 102.58 108.46C101.91 108.34 101.16 109.33 100.92 110.68Z" fill="#263238"/>
<path d="M121.39 109.8C121.39 109.8 120.84 106.8 112.86 106.8" stroke="#263238" stroke-linecap="round" stroke-linejoin="round"/>
<path d="M106.02 105.67C106.02 105.67 103.54 99.8902 98.5901 103.2" stroke="#263238" stroke-linecap="round" stroke-linejoin="round"/>
<path d="M105.44 110.07C105.44 110.07 105.16 115.02 102.96 117.22C100.76 119.42 101.04 120.22 102.96 121.9C103.574 122.379 104.294 122.704 105.06 122.847C105.826 122.989 106.615 122.946 107.36 122.72" stroke="#263238" stroke-linecap="round" stroke-linejoin="round"/>
<path d="M106.02 128.77C106.02 128.77 101.62 128.22 99.6902 126.57" stroke="#263238" stroke-linecap="round" stroke-linejoin="round"/>
</g>
<path d="M125.5 89.4901C125.5 89.4901 128.72 95.1001 128.23 99.4201C127.74 103.74 127.16 112.35 124.81 118.75C122.46 125.15 114.93 131.94 109.3 137.41C103.67 142.88 98.6102 139.35 96.8102 136.75C95.0102 134.15 92.3201 124.62 90.9901 117.31C89.6601 110 92.3802 92.3101 94.8702 87.8201C97.3602 83.3301 113.31 76.3501 125.5 89.4901Z" stroke="#263238" stroke-linecap="round" stroke-linejoin="round"/>
<path d="M133.87 89.8499C133.87 89.8499 124.54 93.5099 120.08 93.5099C115.62 93.5099 118.08 94.32 120.89 96.75C123.7 99.18 124.13 102.43 113.58 102.43C103.03 102.43 93.7101 91.07 90.4601 81.34C87.2101 71.61 85.5901 73.22 91.2701 70.34C96.9501 67.46 111.56 74.7999 111.56 74.7999" fill="#263238"/>
<path d="M133.87 89.8499C133.87 89.8499 124.54 93.5099 120.08 93.5099C115.62 93.5099 118.08 94.32 120.89 96.75C123.7 99.18 124.13 102.43 113.58 102.43C103.03 102.43 93.7101 91.07 90.4601 81.34C87.2101 71.61 85.5901 73.22 91.2701 70.34C96.9501 67.46 111.56 74.7999 111.56 74.7999" stroke="#263238" stroke-linecap="round" stroke-linejoin="round"/>
<path d="M95.4901 77.74C95.4901 77.74 92.9501 92.97 107.33 97.2" stroke="white" stroke-linecap="round" stroke-linejoin="round"/>
<path d="M98.4501 77.74C98.4501 77.74 104.39 87.15 114.94 88.32C125.49 89.49 131.44 83.24 131.44 83.24" stroke="white" stroke-linecap="round" stroke-linejoin="round"/>
<path d="M127.21 92.97C127.21 92.97 133.13 93.39 136.09 89.97" stroke="white" stroke-linecap="round" stroke-linejoin="round"/>
<path d="M148.69 199.52C148.69 199.52 150.19 193.52 158.69 190.27C167.19 187.02 168.19 188.52 169.44 191.02C170.69 193.52 174.44 197.27 173.69 199.77C172.94 202.27 169.94 208.27 158.94 210.52C147.94 212.77 150.19 207.27 148.94 205.77C147.69 204.27 146.44 205.02 148.69 199.52Z" fill="white" stroke="#263238" stroke-linecap="round" stroke-linejoin="round"/>
<path d="M229.44 220.52C229.44 220.52 240.69 224.27 240.19 226.77C239.69 229.27 229.19 223.77 229.19 223.77C229.19 223.77 227.44 227.02 224.19 225.77C220.94 224.52 223.69 219.52 225.44 219.77C227.19 220.02 229.44 220.52 229.44 220.52Z" fill="white" stroke="#263238" stroke-linecap="round" stroke-linejoin="round"/>
<path d="M169.19 218.52C169.19 218.52 153.94 210.26 153.94 206.26C153.94 202.26 165.44 197.01 168.44 197.26C171.44 197.51 172.69 198.51 174.94 202.26C177.19 206.01 195.44 223.01 195.44 223.01C195.44 223.01 207.44 214.51 210.94 214.51C214.44 214.51 222.44 223.76 222.94 227.51C223.44 231.26 206.44 233.01 199.69 233.01C191.38 233.02 169.19 218.52 169.19 218.52Z" fill="white"/>
<mask id="mask2_32_899" style="mask-type:luminance" maskUnits="userSpaceOnUse" x="153" y="197" width="70" height="37">
<path d="M169.19 218.52C169.19 218.52 153.94 210.26 153.94 206.26C153.94 202.26 165.44 197.01 168.44 197.26C171.44 197.51 172.69 198.51 174.94 202.26C177.19 206.01 195.44 223.01 195.44 223.01C195.44 223.01 207.44 214.51 210.94 214.51C214.44 214.51 222.44 223.76 222.94 227.51C223.44 231.26 206.44 233.01 199.69 233.01C191.38 233.02 169.19 218.52 169.19 218.52Z" fill="white"/>
</mask>
<g mask="url(#mask2_32_899)">
<path d="M153.94 206.26C153.94 202.26 165.44 197.01 168.44 197.26C169.217 197.265 169.985 197.423 170.7 197.725C171.416 198.027 172.065 198.467 172.61 199.02C169.245 198.563 165.823 199.235 162.88 200.93C156.73 204.62 161.96 209.85 165.96 212.61C169.96 215.37 192.39 229.83 197.31 230.44C202.23 231.05 206.88 227.61 209.94 224.26C213 220.91 215.14 218.45 218.83 220.6L219.06 220.77C220.388 222.32 221.516 224.03 222.42 225.86C222.632 226.573 222.786 227.302 222.88 228.04C221.8 231.42 206.11 233.04 199.69 233.04C191.38 233.04 169.19 218.54 169.19 218.54C169.19 218.54 153.94 210.26 153.94 206.26Z" fill="#5245ED"/>
<path opacity="0.5" d="M153.94 206.26C153.94 202.26 165.44 197.01 168.44 197.26C169.217 197.265 169.985 197.423 170.7 197.725C171.416 198.027 172.065 198.467 172.61 199.02C169.245 198.563 165.823 199.235 162.88 200.93C156.73 204.62 161.96 209.85 165.96 212.61C169.96 215.37 192.39 229.83 197.31 230.44C202.23 231.05 206.88 227.61 209.94 224.26C213 220.91 215.14 218.45 218.83 220.6L219.06 220.77C220.388 222.32 221.516 224.03 222.42 225.86C222.632 226.573 222.786 227.302 222.88 228.04C221.8 231.42 206.11 233.04 199.69 233.04C191.38 233.04 169.19 218.54 169.19 218.54C169.19 218.54 153.94 210.26 153.94 206.26Z" fill="white"/>
</g>
<path d="M169.19 218.52C169.19 218.52 153.94 210.26 153.94 206.26C153.94 202.26 165.44 197.01 168.44 197.26C171.44 197.51 172.69 198.51 174.94 202.26C177.19 206.01 195.44 223.01 195.44 223.01C195.44 223.01 207.44 214.51 210.94 214.51C214.44 214.51 222.44 223.76 222.94 227.51C223.44 231.26 206.44 233.01 199.69 233.01C191.38 233.02 169.19 218.52 169.19 218.52Z" stroke="#263238" stroke-linecap="round" stroke-linejoin="round"/>
<path d="M224.94 215.02C224.94 215.02 229.69 217.27 230.19 218.77C230.69 220.27 233.94 229.02 231.69 230.02C229.44 231.02 226.44 220.77 225.44 219.77C224.44 218.77 222.94 216.52 224.94 215.02Z" fill="white" stroke="#263238" stroke-linecap="round" stroke-linejoin="round"/>
<path d="M219.94 214.77C219.94 214.77 222.94 212.27 224.94 215.02C226.94 217.77 228.44 227.52 227.44 229.52C226.44 231.52 223.94 229.52 222.94 227.52C221.94 225.52 219.94 214.77 219.94 214.77Z" fill="white" stroke="#263238" stroke-linecap="round" stroke-linejoin="round"/>
<path d="M209.44 216.02C209.44 216.02 214.19 212.02 216.94 211.77C219.69 211.52 220.69 213.52 220.94 215.77C221.19 218.02 224.69 228.27 223.69 228.77C222.69 229.27 220.69 229.02 219.44 226.77C218.029 223.669 216.777 220.499 215.69 217.27L213.69 218.77" fill="white"/>
<path d="M209.44 216.02C209.44 216.02 214.19 212.02 216.94 211.77C219.69 211.52 220.69 213.52 220.94 215.77C221.19 218.02 224.69 228.27 223.69 228.77C222.69 229.27 220.69 229.02 219.44 226.77C218.029 223.669 216.777 220.499 215.69 217.27L213.69 218.77" stroke="#263238" stroke-linecap="round" stroke-linejoin="round"/>
<path d="M196.44 228.26C196.44 228.26 195.44 222.26 197.19 219.76C198.94 217.26 203.19 217.51 206.44 213.76C209.69 210.01 212.19 212.26 211.44 215.51C210.69 218.76 203.44 220.76 203.44 220.76C203.44 220.76 209.44 221.26 209.94 224.26C210.44 227.26 203.77 228.6 203.77 228.6" fill="white"/>
<path d="M196.44 228.26C196.44 228.26 195.44 222.26 197.19 219.76C198.94 217.26 203.19 217.51 206.44 213.76C209.69 210.01 212.19 212.26 211.44 215.51C210.69 218.76 203.44 220.76 203.44 220.76C203.44 220.76 209.44 221.26 209.94 224.26C210.44 227.26 203.77 228.6 203.77 228.6" stroke="#263238" stroke-linecap="round" stroke-linejoin="round"/>
<path d="M213.47 206.93C209.899 207.267 206.444 208.372 203.34 210.17" stroke="#263238" stroke-linecap="round" stroke-linejoin="round"/>
<path d="M209.42 205.31C209.42 205.31 204.15 206.93 201.72 208.96" stroke="#263238" stroke-linecap="round" stroke-linejoin="round"/>
<path d="M69.9401 149.52C71.4687 152.171 72.8055 154.928 73.9401 157.77C74.9401 160.77 72.1901 197.77 72.1901 197.77C68.8722 196.731 65.3434 196.559 61.9401 197.27C56.6901 198.52 46.1901 204.27 46.1901 204.27C46.1901 204.27 45.1901 193.52 46.9401 185.52C48.6901 177.52 51.9401 145.27 54.1901 142.02C56.4401 138.77 55.6901 137.02 60.4401 138.77" fill="#5245ED"/>
<path d="M69.9401 149.52C71.4687 152.171 72.8055 154.928 73.9401 157.77C74.9401 160.77 72.1901 197.77 72.1901 197.77C68.8722 196.731 65.3434 196.559 61.9401 197.27C56.6901 198.52 46.1901 204.27 46.1901 204.27C46.1901 204.27 45.1901 193.52 46.9401 185.52C48.6901 177.52 51.9401 145.27 54.1901 142.02C56.4401 138.77 55.6901 137.02 60.4401 138.77" stroke="#263238" stroke-linecap="round" stroke-linejoin="round"/>
<path d="M42.6901 198.02C42.6901 198.02 49.4401 192.27 54.6901 191.02C59.9401 189.77 69.9401 191.02 71.4401 191.52C72.9401 192.02 73.9401 193.77 74.1901 196.27C74.4401 198.77 76.1901 200.52 74.9401 202.02C73.6901 203.52 66.6901 208.27 60.9401 209.77C55.1901 211.27 46.4401 210.77 45.1901 207.02C43.9401 203.27 41.4401 200.77 42.6901 198.02Z" fill="white" stroke="#263238" stroke-linecap="round" stroke-linejoin="round"/>
<path d="M176.57 218.26C176.57 218.26 184.57 221.71 187.21 222.57C189.85 223.43 190.67 225.81 188.36 226.57C186.05 227.33 175.55 223.41 174.56 223.7C173.57 223.99 162.77 227.44 159.32 227.7C157.047 227.771 154.818 227.066 153 225.7C153 225.7 169.39 215.36 176.57 218.26Z" fill="white" stroke="#263238" stroke-linecap="round" stroke-linejoin="round"/>
<path d="M53.4301 214.04C52.1231 213.603 50.9694 212.799 50.1069 211.724C49.2444 210.649 48.7096 209.349 48.5662 207.978C48.4228 206.607 48.6769 205.224 49.2982 203.994C49.9196 202.764 50.8818 201.738 52.0701 201.04C53.8319 200.042 55.7231 199.291 57.6902 198.81C63.6601 197.39 69.9143 197.737 75.6902 199.81C78.1902 200.81 134.31 217.99 138.34 218.56C142.37 219.13 168.81 210.23 172.84 209.94C178.17 209.56 184.33 223.64 186.06 227.4C186.387 227.996 186.569 228.661 186.59 229.34C186.593 229.679 186.485 230.01 186.283 230.283C186.081 230.555 185.796 230.754 185.47 230.85C184.7 230.98 184.04 230.35 183.56 229.74C180 225.31 178.05 219.53 173.56 216.04L179.78 228.04C180.164 228.668 180.409 229.37 180.5 230.1C180.54 230.465 180.465 230.834 180.286 231.155C180.107 231.475 179.832 231.732 179.5 231.89C178.5 232.25 177.5 231.38 176.95 230.52C175.68 228.429 174.548 226.258 173.56 224.02C172.557 221.766 170.857 219.894 168.71 218.68C171.16 222.882 173.145 227.338 174.63 231.97C174.757 232.324 174.75 232.712 174.612 233.061C174.474 233.411 174.214 233.698 173.88 233.87C172.88 234.3 172.18 233.35 171.71 232.54L165.02 220.84C166.79 224.84 168.38 228.96 169.8 233.11C169.925 233.386 169.963 233.692 169.91 233.99C169.863 234.135 169.784 234.266 169.678 234.376C169.572 234.485 169.443 234.568 169.3 234.62C168.92 234.754 168.509 234.777 168.116 234.687C167.723 234.597 167.364 234.397 167.08 234.11C166.521 233.536 166.082 232.856 165.79 232.11C164.59 229.48 163.74 226.67 162.5 224.11C159.05 224.85 156.17 228.11 152.4 228.65C148.63 229.19 141.77 227.5 141.77 227.5C141.77 227.5 73.1701 218.08 64.1701 216.33C60.554 215.747 56.9695 214.983 53.4301 214.04Z" fill="white"/>
<mask id="mask3_32_899" style="mask-type:luminance" maskUnits="userSpaceOnUse" x="48" y="197" width="139" height="38">
<path d="M53.4301 214.04C52.1231 213.603 50.9694 212.799 50.1069 211.724C49.2444 210.649 48.7096 209.349 48.5662 207.978C48.4228 206.607 48.6769 205.224 49.2982 203.994C49.9196 202.764 50.8818 201.738 52.0701 201.04C53.8319 200.042 55.7231 199.291 57.6902 198.81C63.6601 197.39 69.9143 197.737 75.6902 199.81C78.1902 200.81 134.31 217.99 138.34 218.56C142.37 219.13 168.81 210.23 172.84 209.94C178.17 209.56 184.33 223.64 186.06 227.4C186.387 227.996 186.569 228.661 186.59 229.34C186.593 229.679 186.485 230.01 186.283 230.283C186.081 230.555 185.796 230.754 185.47 230.85C184.7 230.98 184.04 230.35 183.56 229.74C180 225.31 178.05 219.53 173.56 216.04L179.78 228.04C180.164 228.668 180.409 229.37 180.5 230.1C180.54 230.465 180.465 230.834 180.286 231.155C180.107 231.475 179.832 231.732 179.5 231.89C178.5 232.25 177.5 231.38 176.95 230.52C175.68 228.429 174.548 226.258 173.56 224.02C172.557 221.766 170.857 219.894 168.71 218.68C171.16 222.882 173.145 227.338 174.63 231.97C174.757 232.324 174.75 232.712 174.612 233.061C174.474 233.411 174.214 233.698 173.88 233.87C172.88 234.3 172.18 233.35 171.71 232.54L165.02 220.84C166.79 224.84 168.38 228.96 169.8 233.11C169.925 233.386 169.963 233.692 169.91 233.99C169.863 234.135 169.784 234.266 169.678 234.376C169.572 234.485 169.443 234.568 169.3 234.62C168.92 234.754 168.509 234.777 168.116 234.687C167.723 234.597 167.364 234.397 167.08 234.11C166.521 233.536 166.082 232.856 165.79 232.11C164.59 229.48 163.74 226.67 162.5 224.11C159.05 224.85 156.17 228.11 152.4 228.65C148.63 229.19 141.77 227.5 141.77 227.5C141.77 227.5 73.1701 218.08 64.1701 216.33C60.554 215.747 56.9695 214.983 53.4301 214.04Z" fill="white"/>
</mask>
<g mask="url(#mask3_32_899)">
<path d="M54.6701 204.32C56.2101 208.32 96.7901 218.16 114.31 221.23C131.83 224.3 141.67 227.69 148.43 225.23C155.19 222.77 161.34 219.39 162.88 221.54C164.13 223.28 166.39 230.29 167.2 234.19L167.1 234.11C166.541 233.536 166.102 232.856 165.81 232.11C164.61 229.48 163.76 226.67 162.52 224.11C159.07 224.85 156.19 228.11 152.42 228.65C148.65 229.19 141.79 227.5 141.79 227.5C141.79 227.5 73.1902 218.08 64.1902 216.33C60.5683 215.768 56.9771 215.024 53.4301 214.1C52.1231 213.663 50.9694 212.859 50.1069 211.784C49.2444 210.709 48.7096 209.409 48.5662 208.038C48.4228 206.667 48.6769 205.284 49.2982 204.054C49.9196 202.824 50.8818 201.798 52.0701 201.1C53.8319 200.102 55.7231 199.351 57.6902 198.87C57.6902 198.87 53.1301 200.33 54.6701 204.32Z" fill="#5245ED"/>
<path opacity="0.5" d="M54.6701 204.32C56.2101 208.32 96.7901 218.16 114.31 221.23C131.83 224.3 141.67 227.69 148.43 225.23C155.19 222.77 161.34 219.39 162.88 221.54C164.13 223.28 166.39 230.29 167.2 234.19L167.1 234.11C166.541 233.536 166.102 232.856 165.81 232.11C164.61 229.48 163.76 226.67 162.52 224.11C159.07 224.85 156.19 228.11 152.42 228.65C148.65 229.19 141.79 227.5 141.79 227.5C141.79 227.5 73.1902 218.08 64.1902 216.33C60.5683 215.768 56.9771 215.024 53.4301 214.1C52.1231 213.663 50.9694 212.859 50.1069 211.784C49.2444 210.709 48.7096 209.409 48.5662 208.038C48.4228 206.667 48.6769 205.284 49.2982 204.054C49.9196 202.824 50.8818 201.798 52.0701 201.1C53.8319 200.102 55.7231 199.351 57.6902 198.87C57.6902 198.87 53.1301 200.33 54.6701 204.32Z" fill="white"/>
</g>
<path d="M53.4301 214.04C52.1231 213.603 50.9694 212.799 50.1069 211.724C49.2444 210.649 48.7096 209.349 48.5662 207.978C48.4228 206.607 48.6769 205.224 49.2982 203.994C49.9196 202.764 50.8818 201.738 52.0701 201.04C53.8319 200.042 55.7231 199.291 57.6902 198.81C63.6601 197.39 69.9143 197.737 75.6902 199.81C78.1902 200.81 134.31 217.99 138.34 218.56C142.37 219.13 168.81 210.23 172.84 209.94C178.17 209.56 184.33 223.64 186.06 227.4C186.387 227.996 186.569 228.661 186.59 229.34C186.593 229.679 186.485 230.01 186.283 230.283C186.081 230.555 185.796 230.754 185.47 230.85C184.7 230.98 184.04 230.35 183.56 229.74C180 225.31 178.05 219.53 173.56 216.04L179.78 228.04C180.164 228.668 180.409 229.37 180.5 230.1C180.54 230.465 180.465 230.834 180.286 231.155C180.107 231.475 179.832 231.732 179.5 231.89C178.5 232.25 177.5 231.38 176.95 230.52C175.68 228.429 174.548 226.258 173.56 224.02C172.557 221.766 170.857 219.894 168.71 218.68C171.16 222.882 173.145 227.338 174.63 231.97C174.757 232.324 174.75 232.712 174.612 233.061C174.474 233.411 174.214 233.698 173.88 233.87C172.88 234.3 172.18 233.35 171.71 232.54L165.02 220.84C166.79 224.84 168.38 228.96 169.8 233.11C169.925 233.386 169.963 233.692 169.91 233.99C169.863 234.135 169.784 234.266 169.678 234.376C169.572 234.485 169.443 234.568 169.3 234.62C168.92 234.754 168.509 234.777 168.116 234.687C167.723 234.597 167.364 234.397 167.08 234.11C166.521 233.536 166.082 232.856 165.79 232.11C164.59 229.48 163.74 226.67 162.5 224.11C159.05 224.85 156.17 228.11 152.4 228.65C148.63 229.19 141.77 227.5 141.77 227.5C141.77 227.5 73.1701 218.08 64.1701 216.33C60.554 215.747 56.9695 214.983 53.4301 214.04Z" stroke="#263238" stroke-linecap="round" stroke-linejoin="round"/>
<path d="M280.32 236.7H235.95V234.63H280.32V236.7Z" fill="white" stroke="#263238" stroke-linecap="round" stroke-linejoin="round"/>
<path d="M314.44 223.04H218.8V161.36H314.44V223.04Z" fill="white" stroke="#263238" stroke-linecap="round" stroke-linejoin="round"/>
<path d="M314.44 223.04H224.02V161.36H314.44V223.04Z" fill="#263238" stroke="#263238" stroke-linecap="round" stroke-linejoin="round"/>
<path d="M281.35 237.64H260.42V190.02H281.35V237.64Z" fill="white" stroke="#263238" stroke-linecap="round" stroke-linejoin="round"/>
<path d="M283.28 237.64H262.35V190.02H283.28V237.64Z" fill="#263238" stroke="#263238" stroke-linecap="round" stroke-linejoin="round"/>
<path d="M260.96 190.59H283.77V223.19" stroke="white" stroke-linecap="round" stroke-linejoin="round"/>
<path d="M218.14 236.88H154.07V233.53H218.14V236.88Z" fill="white" stroke="#263238" stroke-linecap="round" stroke-linejoin="round"/>
<path d="M250.8 236.88H170.63V233.53H250.8V236.88Z" fill="white" stroke="#263238" stroke-linecap="round" stroke-linejoin="round"/>
<path d="M96.46 236.91H63.81L64.3199 232.29L96.46 234.07V236.91Z" fill="white" stroke="#263238" stroke-linecap="round" stroke-linejoin="round"/>
<path d="M119.35 237.15H86.7L87.21 232.53L119.35 234.31V237.15Z" fill="white" stroke="#263238" stroke-linecap="round" stroke-linejoin="round"/>
<path d="M34.95 234.07C34.95 234.07 42.64 234.46 45.33 234.46C48.02 234.46 59.94 231.77 64.94 232.53C68.1209 233.134 71.0969 234.534 73.59 236.6C76.0831 234.534 79.0591 233.134 82.24 232.53C87.24 231.77 99.16 234.46 101.85 234.46C104.54 234.46 112.23 234.07 112.23 234.07V237.15L73.59 236.77L34.95 237.15V234.07Z" fill="white" stroke="#263238" stroke-linecap="round" stroke-linejoin="round"/>
<path d="M112.23 234.07H144.88V236.91H112.23V234.07Z" fill="white" stroke="#263238" stroke-linecap="round" stroke-linejoin="round"/>
<path d="M337.11 244.41L0.999969 244.41L0.999969 236.85L337.11 236.85V244.41Z" fill="white" stroke="#263238" stroke-linecap="round" stroke-linejoin="round"/>
<path d="M365.07 244.41L121.63 244.41V236.85L365.07 236.85V244.41Z" fill="#263238" stroke="#263238" stroke-linecap="round" stroke-linejoin="round"/>
</svg>
